<?xml version="1.0" standalone="no"?>
<!DOCTYPE svg PUBLIC "-//W3C//DTD SVG 1.1//EN" "http://www.w3.org/Graphics/SVG/1.1/DTD/svg11.dtd" >
<svg xmlns="http://www.w3.org/2000/svg">
    <defs>
        <font id="Lovelo">
            <font-face font-family="Lovelo"
                       units-per-em="1000"
                       ascent="750"
                       descent="-250"
                       bbox="-30 -303 903 975"
                    />
            <missing-glyph horiz-adv-x="0" />
            
            <glyph glyph-name="!" unicode="&#x21;" horiz-adv-x="223" d=" M223,123 Q223,23 182,2.5 Q141,-18 100,2.5 Q59,23 59,73 Q59,123 100,143.5 Q141,164 223,123 M64,450 L64,715 L218,715 L218,450 Q204,266 198,214 L85,214 Q81,245 77.5,285 Q74,325 70,374 Q66,423 64,450"/> 
            <glyph glyph-name="&quot;" unicode="&#x22;" horiz-adv-x="366" d=" M36,494 L36,714 L166,714 L151,494 M236,494 L236,714 L366,714 L351,494"/> 
            <glyph glyph-name="$" unicode="&#x24;" horiz-adv-x="489" d=" M47,46 L65,196 Q119,158 175,147 Q231,136 269,139 Q301,141 323.5,162 Q346,183 343,211 Q341,239 322,255.5 Q303,272 269,284 Q170,320 113.5,370 Q57,420 57,502 Q57,577 97.5,634 Q138,691 206,711 L206,807 L333,807 L333,717 Q379,710 437,690 L419,552 Q338,585 273,582 Q237,580 218.5,557 Q200,534 202,502 Q205,475 225.5,458.5 Q246,442 282,430 Q489,354 489,211 Q489,135 447.5,79 Q406,23 333,3 L333,-94 L206,-94 L206,-3 Q122,7 47,46"/> 
            <glyph glyph-name="'" unicode="&#x27;" horiz-adv-x="166" d=" M36,494 L36,714 L166,714 L151,494"/> 
            <glyph glyph-name="," unicode="&#x2C;" horiz-adv-x="205" d=" M57,110 L205,110 L127,-116 L15,-116"/> 
            <glyph glyph-name="-" unicode="&#x2D;" horiz-adv-x="402" d=" M38,275 L38,408 L402,408 L402,275"/> 
            <glyph glyph-name="." unicode="&#x2E;" horiz-adv-x="203" d=" M110,154 Q162,154 182.5,114 Q203,74 182,33.5 Q161,-7 110,-7 Q72,-7 50,18 Q28,43 28,73.5 Q28,104 50,129 Q72,154 110,154"/> 
            <glyph glyph-name="/" unicode="&#x2F;" horiz-adv-x="429" d=" M148,0 L0,0 L281,715 L429,715"/> 
            <glyph glyph-name="0" unicode="&#x30;" horiz-adv-x="543" d=" M297,-10 Q212,-10 155.5,41 Q99,92 75.5,172 Q52,252 52,358 Q52,464 75.5,544 Q99,624 155.5,674.5 Q212,725 297,725 Q383,725 439.5,674.5 Q496,624 519.5,544 Q543,464 543,358 Q543,252 519.5,172 Q496,92 439.5,41 Q383,-10 297,-10 M297,125 Q405,125 405,358 Q405,591 297,591 Q191,591 191,358 Q191,125 297,125"/> 
            <glyph glyph-name="1" unicode="&#x31;" horiz-adv-x="289" d=" M30,571 L30,714 L289,714 L289,0 L147,0 L147,571"/> 
            <glyph glyph-name="2" unicode="&#x32;" horiz-adv-x="478" d=" M273,424 Q290,448 299,469 Q308,490 308,498 L309,507 Q309,537 288,557 Q267,577 235,579 Q193,582 142.5,561.5 Q92,541 70,522 L35,660 Q77,690 136,708.5 Q195,727 247,725 Q324,721 377,687 Q430,653 451,602.5 Q472,552 461.5,488 Q451,424 407,363 L266,145 L478,145 L478,0 L6,0"/> 
            <glyph glyph-name="3" unicode="&#x33;" horiz-adv-x="464" d=" M162,292 L159,438 L228,438 Q261,438 282,456.5 Q303,475 302,505 Q301,542 272.5,562 Q244,582 205,583.5 Q166,585 128,579 Q90,573 68,561 L46,696 Q130,729 234,725 Q330,719 391.5,658 Q453,597 455,505 Q457,416 379,365 Q419,342 440,300 Q461,258 462,213 Q464,120 408.5,59.5 Q353,-1 251,-6 Q199,-9 131.5,1 Q64,11 29,26 L45,171 Q70,158 113,149 Q156,140 201.5,138 Q247,136 279,154.5 Q311,173 310,213 Q309,244 286,268 Q263,292 231,292"/> 
            <glyph glyph-name="4" unicode="&#x34;" horiz-adv-x="515" d=" M437,1 L294,1 L294,180 L-4,180 L199,715 L349,715 L203,323 L294,323 L294,444 L437,540 L437,323 L515,323 L515,180 L437,180"/> 
            <glyph glyph-name="5" unicode="&#x35;" horiz-adv-x="483" d=" M211,453 Q351,441 417,385.5 Q483,330 483,210 Q483,119 425,59 Q367,-1 268,-6 Q152,-12 40,26 L53,168 Q117,146 168,138 Q219,130 250,133.5 Q281,137 301.5,149.5 Q322,162 330,178 Q338,194 338,213 Q338,276 284,301.5 Q230,327 67,339 L67,715 L431,715 L431,578 L211,578"/> 
            <glyph glyph-name="6" unicode="&#x36;" horiz-adv-x="466" d=" M258,412 Q353,413 409.5,358.5 Q466,304 466,205 Q466,114 407.5,52.5 Q349,-9 249,-8 Q186,-7 138,22 Q90,51 67,96.5 Q44,142 40,199.5 Q36,257 62,315 L228,714 L383,714 M325,206 Q327,254 289,274 Q251,294 213,275 Q175,256 175,208 Q175,174 198,154 Q221,134 248.5,133.5 Q276,133 299.5,152.5 Q323,172 325,206"/> 
            <glyph glyph-name="7" unicode="&#x37;" horiz-adv-x="507" d=" M61,0 L304,579 L16,579 L16,714 L507,714 L215,0"/> 
            <glyph glyph-name="8" unicode="&#x38;" horiz-adv-x="471" d=" M470,505 Q470,409 402,358 Q471,307 471,211 Q471,107 410.5,49.5 Q350,-8 256,-8 Q161,-8 99.5,49.5 Q38,107 38,211 Q38,308 106,358 Q38,410 38,505 Q38,607 102,665 Q166,723 253,723 Q340,723 405,665 Q470,607 470,505 M222,429 Q286,429 308.5,449 Q331,469 331,504 Q331,540 308.5,559.5 Q286,579 254,579 Q222,579 199,559.5 Q176,540 176,504 Q176,469 222,429 M221,134 Q287,134 309.5,156.5 Q332,179 332,211 Q332,244 310,266 Q288,288 254,288 Q220,288 197.5,265.5 Q175,243 175,211 Q175,179 221,134"/> 
            <glyph glyph-name="9" unicode="&#x39;" horiz-adv-x="470" d=" M247,301 Q153,300 96.5,355 Q40,410 40,508 Q40,600 98.5,661.5 Q157,723 257,721 Q320,720 368,691 Q416,662 439,616.5 Q462,571 466,513.5 Q470,456 444,398 L277,0 L123,0 M184,507 Q182,462 218,442.5 Q254,423 290.5,441 Q327,459 327,504 Q327,537 305,556 Q283,575 257,575.5 Q231,576 208,558 Q185,540 184,507"/> 
            <glyph glyph-name=":" unicode="&#x3A;" horiz-adv-x="203" d=" M110,154 Q162,154 182.5,114 Q203,74 182,33.5 Q161,-7 110,-7 Q72,-7 50,18 Q28,43 28,73.5 Q28,104 50,129 Q72,154 110,154 M110,446 Q162,446 182.5,406 Q203,366 182,325.5 Q161,285 110,285 Q72,285 50,310 Q28,335 28,365.5 Q28,396 50,421 Q72,446 110,446"/> 
            <glyph glyph-name=";" unicode="&#x3B;" horiz-adv-x="203" d=" M110,446 Q162,446 182.5,406 Q203,366 182,325.5 Q161,285 110,285 Q72,285 50,310 Q28,335 28,365.5 Q28,396 50,421 Q72,446 110,446 M46,104 L194,104 L116,-122 L4,-122"/> 
            <glyph glyph-name="?" unicode="&#x3F;" horiz-adv-x="451" d=" M302,206 L160,206 Q163,262 201,328.5 Q239,395 274.5,444.5 Q310,494 310,510 Q315,561 277,583.5 Q239,606 199,584.5 Q159,563 159,510 L22,510 Q18,590 60.5,646.5 Q103,703 166.5,717.5 Q230,732 294.5,722 Q359,712 404.5,660 Q450,608 451,530 Q451,484 430,441.5 Q409,399 382.5,370.5 Q356,342 331.5,298 Q307,254 302,206 M316,69 Q316,107 290,129 Q264,151 232.5,151 Q201,151 175,129 Q149,107 149,69 Q149,19 190.5,-1.5 Q232,-22 274,-1.5 Q316,19 316,69"/> 
            <glyph glyph-name="A" unicode="&#x41;" horiz-adv-x="633" d=" M16,0 L317,741 L332,741 L633,0 L472,0 L443,77 L206,77 L178,0 M258,211 L390,211 L325,397"/> 
            <glyph glyph-name="B" unicode="&#x42;" horiz-adv-x="574" d=" M224,573 L224,429 L310,429 L351,429 Q381,429 399,450 Q417,471 417,501 Q417,532 399,552.5 Q381,573 351,573 M80,0 L80,0 L80,716 L363,716 Q457,716 512.5,655.5 Q568,595 566,499 Q562,401 500,358 Q535,334 554.5,296 Q574,258 574,215 Q574,125 512,62.5 Q450,0 363,0 M224,286 L224,143 L310,143 L351,143 Q382,143 402.5,164 Q423,185 423,215 Q423,245 402.5,265.5 Q382,286 351,286"/> 
            <glyph glyph-name="C" unicode="&#x43;" horiz-adv-x="568" d=" M535,549 Q475,580 411,580 Q353,580 307,556 Q261,532 237.5,493.5 Q214,455 203,408.5 Q192,362 203,315.5 Q214,269 237.5,230.5 Q261,192 307,168 Q353,144 411,144 Q487,144 549,176 L568,28 Q495,-2 411,-2 Q311,-2 233,38 Q155,78 114.5,142 Q74,206 55,283.5 Q36,361 55,438.5 Q74,516 114.5,580 Q155,644 233,684 Q311,724 411,724 Q489,724 552,696"/> 
            <glyph glyph-name="D" unicode="&#x44;" horiz-adv-x="650" d=" M293,715 Q379,715 448.5,684.5 Q518,654 561,603.5 Q604,553 627,489 Q650,425 650,357.5 Q650,290 627,226 Q604,162 561,111.5 Q518,61 448.5,30.5 Q379,0 293,0 L80,0 L80,715 M293,572 L223,572 L223,143 L293,143 Q359,143 408,175 Q457,207 479,254.5 Q501,302 501,357.5 Q501,413 479,460.5 Q457,508 408,540 Q359,572 293,572"/> 
            <glyph glyph-name="E" unicode="&#x45;" horiz-adv-x="450" d=" M450,0 L80,0 L80,715 L438,715 L438,572 L223,572 L223,429 L411,429 L411,286 L223,286 L223,143 L450,143"/> 
            <glyph glyph-name="F" unicode="&#x46;" horiz-adv-x="437" d=" M437,572 L223,572 L223,429 L405,429 L405,286 L223,286 L223,0 L80,0 L80,715 L437,715"/> 
            <glyph glyph-name="G" unicode="&#x47;" horiz-adv-x="596" d=" M596,44 Q511,-4 411,-4 Q335,-4 270.5,20 Q206,44 163.5,85.5 Q121,127 91,180 Q61,233 53.5,292.5 Q46,352 51.5,411.5 Q57,471 85.5,525.5 Q114,580 156.5,622.5 Q199,665 265,691.5 Q331,718 411,721 Q485,724 578,695 L561,550 Q495,578 411,576 Q352,574 306,549 Q260,524 236.5,485 Q213,446 202.5,400 Q192,354 204,308 Q216,262 240,224 Q264,186 309,162.5 Q354,139 411,139 Q425,139 451,143 L451,358 L596,358"/> 
            <glyph glyph-name="H" unicode="&#x48;" horiz-adv-x="580" d=" M580,0 L437,0 L437,286 L223,286 L223,0 L80,0 L80,715 L223,715 L223,429 L437,429 L437,715 L580,715"/> 
            <glyph glyph-name="I" unicode="&#x49;" horiz-adv-x="223" d=" M223,0 L80,0 L80,715 L223,715"/> 
            <glyph glyph-name="J" unicode="&#x4A;" horiz-adv-x="386" d=" M32,0 L32,143 L169,143 Q200,143 220.5,164 Q241,185 241,215 L241,715 L386,715 L386,215 Q386,0 173,0"/> 
            <glyph glyph-name="K" unicode="&#x4B;" horiz-adv-x="590" d=" M80,0 L80,715 L223,715 L223,430 L403,715 L570,715 L338,362 L590,0 L413,0 L223,280 L223,0"/> 
            <glyph glyph-name="L" unicode="&#x4C;" horiz-adv-x="450" d=" M80,715 L223,715 L223,143 L450,143 L450,0 L80,0"/> 
            <glyph glyph-name="M" unicode="&#x4D;" horiz-adv-x="735" d=" M408,412 L690,726 L735,726 L735,0 L590,0 L591,399 L408,207 L225,399 L225,0 L80,0 L80,726 L126,726"/> 
            <glyph glyph-name="N" unicode="&#x4E;" horiz-adv-x="623" d=" M223,389 L223,0 L80,0 L80,730 L118,730 L479,310 L479,714 L623,714 L623,-15 L585,-15"/> 
            <glyph glyph-name="O" unicode="&#x4F;" horiz-adv-x="793" d=" M513,-10 Q335,-10 263,21.5 Q191,53 147,105 Q103,157 79,223 Q55,289 55,358.5 Q55,428 79,494 Q103,560 147,612 Q191,664 263,695.5 Q335,727 424,727 Q513,727 585,695.5 Q657,664 701,612 Q745,560 769,494 Q793,428 793,358.5 Q793,289 769,223 Q745,157 701,105 Q657,53 513,-10 M424,138 Q483,138 529,162.5 Q575,187 599,226 Q623,265 634,312 Q645,359 634,406 Q623,453 599,492 Q575,531 529,555.5 Q483,580 424,580 Q356,580 305.5,547.5 Q255,515 232.5,465.5 Q210,416 210,359 Q210,302 232.5,252.5 Q255,203 305.5,170.5 Q356,138 424,138"/> 
            <glyph glyph-name="P" unicode="&#x50;" horiz-adv-x="569" d=" M223,0 L80,0 L80,714 L361,714 Q427,714 476,681.5 Q525,649 547,600 Q569,551 568.5,493.5 Q568,436 546.5,387 Q525,338 476,305.5 Q427,273 361,273 L223,273 M223,412 L349,412 Q383,412 402.5,437 Q422,462 422,492 Q422,522 402.5,547 Q383,572 349,572 L223,572"/> 
            <glyph glyph-name="Q" unicode="&#x51;" horiz-adv-x="785" d=" M376,303 L545,303 L595,239 Q622,287 624,345.5 Q626,404 605.5,454.5 Q585,505 534.5,539.5 Q484,574 415,574 Q348,574 299,542 Q250,510 228,462 Q206,414 206,358 Q206,302 228,254 Q250,206 299,174 Q348,142 415,142 Q460,142 496,156 M592,37 Q516,-2 415,-2 Q328,-2 258,29 Q188,60 144.5,110.5 Q101,161 78,226 Q55,291 55,358.5 Q55,426 78,491 Q101,556 144.5,606.5 Q188,657 258,688 Q328,719 415,719 Q501,719 571,688.5 Q641,658 684,608 Q727,558 751.5,493.5 Q776,429 776.5,363 Q777,297 755,231.5 Q733,166 691,116 L785,-4 L627,-4"/> 
            <glyph glyph-name="R" unicode="&#x52;" horiz-adv-x="598" d=" M598,0 L436,0 L292,273 L223,273 L223,0 L80,0 L80,715 L362,715 Q423,715 470,688 Q517,661 541,619.5 Q565,578 571,527.5 Q577,477 564,431 Q551,385 517,347.5 Q483,310 432,295 M223,572 L223,412 L349,412 Q383,412 402.5,437 Q422,462 422,492 Q422,522 402.5,547 Q383,572 349,572"/> 
            <glyph glyph-name="S" unicode="&#x53;" horiz-adv-x="489" d=" M47,46 L65,196 Q119,158 175,147 Q231,136 269,139 Q301,141 323.5,162 Q346,183 343,211 Q341,239 322,255.5 Q303,272 269,284 Q170,320 113.5,370 Q57,420 57,502 Q57,592 113.5,654 Q170,716 259,720 Q338,724 437,690 L419,552 Q338,585 273,582 Q237,580 218.5,557 Q200,534 202,502 Q205,475 225.5,458.5 Q246,442 282,430 Q489,354 489,211 Q489,120 430.5,59.5 Q372,-1 273,-6 Q164,-14 47,46"/> 
            <glyph glyph-name="T" unicode="&#x54;" horiz-adv-x="519" d=" M341,0 L198,0 L198,572 L20,572 L20,714 L519,714 L519,572 L341,572"/> 
            <glyph glyph-name="U" unicode="&#x55;" horiz-adv-x="593" d=" M593,249 Q593,188 571,138 Q549,88 512.5,57.5 Q476,27 429.5,10.5 Q383,-6 334.5,-6 Q286,-6 239.5,10.5 Q193,27 156.5,57.5 Q120,88 98,138 Q76,188 76,249 L76,715 L219,715 L219,250 Q219,207 243,178 Q267,149 301,142 Q335,135 369,142 Q403,149 427,178 Q451,207 451,250 L451,715 L593,715"/> 
            <glyph glyph-name="V" unicode="&#x56;" horiz-adv-x="630" d=" M334,-15 L302,-15 L6,715 L171,715 L266,477 L318,329 L369,472 L465,715 L630,715"/> 
            <glyph glyph-name="W" unicode="&#x57;" horiz-adv-x="903" d=" M324,-15 L299,-15 L6,715 L167,715 L311,350 L451,708 L458,708 L598,350 L742,715 L903,715 L611,-12 L585,-12 L454,305"/> 
            <glyph glyph-name="X" unicode="&#x58;" horiz-adv-x="624" d=" M6,0 L231,381 L37,716 L210,716 L318,517 L425,716 L594,716 L399,381 L624,0 L455,0 L318,245 L180,0"/> 
            <glyph glyph-name="Y" unicode="&#x59;" horiz-adv-x="647" d=" M255,0 L255,322 L6,715 L180,715 L326,469 L472,715 L647,715 L397,322 L397,0"/> 
            <glyph glyph-name="Z" unicode="&#x5A;" horiz-adv-x="501" d=" M501,0 L22,0 Q51,64 103.5,181.5 Q156,299 199,395 Q242,491 280,576 L60,576 L60,715 L493,715 Q407,524 235,144 L501,144"/> 
            <glyph glyph-name="`" unicode="&#x60;" horiz-adv-x="299" d=" M60,714 L246,714 L299,573 L161,573"/> 
            <glyph glyph-name="a" unicode="&#x61;" horiz-adv-x="633" d=" M16,0 L317,741 L332,741 L633,0 L472,0 L443,77 L206,77 L178,0 M258,211 L390,211 L325,397"/> 
            <glyph glyph-name="b" unicode="&#x62;" horiz-adv-x="574" d=" M224,573 L224,429 L310,429 L351,429 Q381,429 399,450 Q417,471 417,501 Q417,532 399,552.5 Q381,573 351,573 M80,0 L80,0 L80,716 L363,716 Q457,716 512.5,655.5 Q568,595 566,499 Q562,401 500,358 Q535,334 554.5,296 Q574,258 574,215 Q574,125 512,62.5 Q450,0 363,0 M224,286 L224,143 L310,143 L351,143 Q382,143 402.5,164 Q423,185 423,215 Q423,245 402.5,265.5 Q382,286 351,286"/> 
            <glyph glyph-name="c" unicode="&#x63;" horiz-adv-x="568" d=" M535,549 Q475,580 411,580 Q353,580 307,556 Q261,532 237.5,493.5 Q214,455 203,408.5 Q192,362 203,315.5 Q214,269 237.5,230.5 Q261,192 307,168 Q353,144 411,144 Q487,144 549,176 L568,28 Q495,-2 411,-2 Q311,-2 233,38 Q155,78 114.5,142 Q74,206 55,283.5 Q36,361 55,438.5 Q74,516 114.5,580 Q155,644 233,684 Q311,724 411,724 Q489,724 552,696"/> 
            <glyph glyph-name="d" unicode="&#x64;" horiz-adv-x="650" d=" M293,715 Q379,715 448.5,684.5 Q518,654 561,603.5 Q604,553 627,489 Q650,425 650,357.5 Q650,290 627,226 Q604,162 561,111.5 Q518,61 448.5,30.5 Q379,0 293,0 L80,0 L80,715 M293,572 L223,572 L223,143 L293,143 Q359,143 408,175 Q457,207 479,254.5 Q501,302 501,357.5 Q501,413 479,460.5 Q457,508 408,540 Q359,572 293,572"/> 
            <glyph glyph-name="e" unicode="&#x65;" horiz-adv-x="450" d=" M450,0 L80,0 L80,715 L438,715 L438,572 L223,572 L223,429 L411,429 L411,286 L223,286 L223,143 L450,143"/> 
            <glyph glyph-name="f" unicode="&#x66;" horiz-adv-x="437" d=" M437,572 L223,572 L223,429 L405,429 L405,286 L223,286 L223,0 L80,0 L80,715 L437,715"/> 
            <glyph glyph-name="g" unicode="&#x67;" horiz-adv-x="596" d=" M596,44 Q511,-4 411,-4 Q335,-4 270.5,20 Q206,44 163.5,85.5 Q121,127 91,180 Q61,233 53.5,292.5 Q46,352 51.5,411.5 Q57,471 85.5,525.5 Q114,580 156.5,622.5 Q199,665 265,691.5 Q331,718 411,721 Q485,724 578,695 L561,550 Q495,578 411,576 Q352,574 306,549 Q260,524 236.5,485 Q213,446 202.5,400 Q192,354 204,308 Q216,262 240,224 Q264,186 309,162.5 Q354,139 411,139 Q425,139 451,143 L451,358 L596,358"/> 
            <glyph glyph-name="h" unicode="&#x68;" horiz-adv-x="580" d=" M580,0 L437,0 L437,286 L223,286 L223,0 L80,0 L80,715 L223,715 L223,429 L437,429 L437,715 L580,715"/> 
            <glyph glyph-name="i" unicode="&#x69;" horiz-adv-x="223" d=" M223,0 L80,0 L80,715 L223,715"/> 
            <glyph glyph-name="j" unicode="&#x6A;" horiz-adv-x="384" d=" M32,0 L32,143 L169,143 Q200,143 221,164 Q242,185 242,215 L242,715 L384,715 L384,215 Q384,126 322.5,63 Q261,0 173,0"/> 
            <glyph glyph-name="k" unicode="&#x6B;" horiz-adv-x="590" d=" M80,0 L80,715 L223,715 L223,430 L403,715 L570,715 L338,362 L590,0 L413,0 L223,280 L223,0"/> 
            <glyph glyph-name="l" unicode="&#x6C;" horiz-adv-x="450" d=" M80,715 L223,715 L223,143 L450,143 L450,0 L80,0"/> 
            <glyph glyph-name="m" unicode="&#x6D;" horiz-adv-x="735" d=" M408,412 L690,726 L735,726 L735,0 L590,0 L591,399 L408,207 L225,399 L225,0 L80,0 L80,726 L126,726"/> 
            <glyph glyph-name="n" unicode="&#x6E;" horiz-adv-x="623" d=" M223,389 L223,0 L80,0 L80,730 L118,730 L479,310 L479,714 L623,714 L623,-15 L585,-15"/> 
            <glyph glyph-name="o" unicode="&#x6F;" horiz-adv-x="793" d=" M513,-10 Q335,-10 263,21.5 Q191,53 147,105 Q103,157 79,223 Q55,289 55,358.5 Q55,428 79,494 Q103,560 147,612 Q191,664 263,695.5 Q335,727 424,727 Q513,727 585,695.5 Q657,664 701,612 Q745,560 769,494 Q793,428 793,358.5 Q793,289 769,223 Q745,157 701,105 Q657,53 513,-10 M424,138 Q483,138 529,162.5 Q575,187 599,226 Q623,265 634,312 Q645,359 634,406 Q623,453 599,492 Q575,531 529,555.5 Q483,580 424,580 Q356,580 305.5,547.5 Q255,515 232.5,465.5 Q210,416 210,359 Q210,302 232.5,252.5 Q255,203 305.5,170.5 Q356,138 424,138"/> 
            <glyph glyph-name="p" unicode="&#x70;" horiz-adv-x="569" d=" M223,0 L80,0 L80,714 L361,714 Q427,714 476,681.5 Q525,649 547,600 Q569,551 568.5,493.5 Q568,436 546.5,387 Q525,338 476,305.5 Q427,273 361,273 L223,273 M223,412 L349,412 Q383,412 402.5,437 Q422,462 422,492 Q422,522 402.5,547 Q383,572 349,572 L223,572"/> 
            <glyph glyph-name="q" unicode="&#x71;" horiz-adv-x="785" d=" M376,303 L545,303 L595,239 Q622,287 624,345.5 Q626,404 605.5,454.5 Q585,505 534.5,539.5 Q484,574 415,574 Q348,574 299,542 Q250,510 228,462 Q206,414 206,358 Q206,302 228,254 Q250,206 299,174 Q348,142 415,142 Q460,142 496,156 M592,37 Q516,-2 415,-2 Q328,-2 258,29 Q188,60 144.5,110.5 Q101,161 78,226 Q55,291 55,358.5 Q55,426 78,491 Q101,556 144.5,606.5 Q188,657 258,688 Q328,719 415,719 Q501,719 571,688.5 Q641,658 684,608 Q727,558 751.5,493.5 Q776,429 776.5,363 Q777,297 755,231.5 Q733,166 691,116 L785,-4 L627,-4"/> 
            <glyph glyph-name="r" unicode="&#x72;" horiz-adv-x="598" d=" M598,0 L436,0 L292,273 L223,273 L223,0 L80,0 L80,715 L362,715 Q423,715 470,688 Q517,661 541,619.5 Q565,578 571,527.5 Q577,477 564,431 Q551,385 517,347.5 Q483,310 432,295 M223,572 L223,412 L349,412 Q383,412 402.5,437 Q422,462 422,492 Q422,522 402.5,547 Q383,572 349,572"/> 
            <glyph glyph-name="s" unicode="&#x73;" horiz-adv-x="489" d=" M47,46 L65,196 Q119,158 175,147 Q231,136 269,139 Q301,141 323.5,162 Q346,183 343,211 Q341,239 322,255.5 Q303,272 269,284 Q170,320 113.5,370 Q57,420 57,502 Q57,592 113.5,654 Q170,716 259,720 Q338,724 437,690 L419,552 Q338,585 273,582 Q237,580 218.5,557 Q200,534 202,502 Q205,475 225.5,458.5 Q246,442 282,430 Q489,354 489,211 Q489,120 430.5,59.5 Q372,-1 273,-6 Q164,-14 47,46"/> 
            <glyph glyph-name="t" unicode="&#x74;" horiz-adv-x="519" d=" M341,0 L198,0 L198,572 L20,572 L20,714 L519,714 L519,572 L341,572"/> 
            <glyph glyph-name="u" unicode="&#x75;" horiz-adv-x="593" d=" M593,249 Q593,188 571,138 Q549,88 512.5,57.5 Q476,27 429.5,10.5 Q383,-6 334.5,-6 Q286,-6 239.5,10.5 Q193,27 156.5,57.5 Q120,88 98,138 Q76,188 76,249 L76,715 L219,715 L219,250 Q219,207 243,178 Q267,149 301,142 Q335,135 369,142 Q403,149 427,178 Q451,207 451,250 L451,715 L593,715"/> 
            <glyph glyph-name="v" unicode="&#x76;" horiz-adv-x="630" d=" M334,-15 L302,-15 L6,715 L171,715 L266,477 L318,329 L369,472 L465,715 L630,715"/> 
            <glyph glyph-name="w" unicode="&#x77;" horiz-adv-x="903" d=" M324,-15 L299,-15 L6,715 L167,715 L311,350 L451,708 L458,708 L598,350 L742,715 L903,715 L611,-12 L585,-12 L454,305"/> 
            <glyph glyph-name="x" unicode="&#x78;" horiz-adv-x="624" d=" M6,0 L231,381 L37,716 L210,716 L318,517 L425,716 L594,716 L399,381 L624,0 L455,0 L318,245 L180,0"/> 
            <glyph glyph-name="y" unicode="&#x79;" horiz-adv-x="647" d=" M255,0 L255,322 L6,715 L180,715 L326,469 L472,715 L647,715 L397,322 L397,0"/> 
            <glyph glyph-name="z" unicode="&#x7A;" horiz-adv-x="501" d=" M501,0 L22,0 Q51,64 103.5,181.5 Q156,299 199,395 Q242,491 280,576 L60,576 L60,715 L493,715 Q407,524 235,144 L501,144"/> 
            <glyph glyph-name="¡" unicode="&#xA1;" horiz-adv-x="216" d=" M52,377 Q52,477 93,497.5 Q134,518 175,497.5 Q216,477 216,427 Q216,377 175,356.5 Q134,336 52,377 M211,50 L211,-215 L57,-215 L57,50 Q71,234 77,286 L190,286 Q194,255 197.5,215 Q201,175 205,126 Q209,77 211,50"/> 
            <glyph glyph-name="¥" unicode="&#xA5;" horiz-adv-x="647" d=" M397,0 L255,0 L255,162 L117,162 L117,263 L255,263 L255,308 L117,308 L117,409 L200,409 L6,715 L180,715 L326,469 L472,715 L647,715 L452,409 L525,409 L525,308 L397,308 L397,263 L525,263 L525,162 L397,162"/> 
            <glyph glyph-name="¨" unicode="&#xA8;" horiz-adv-x="463" d=" M53,634 Q53,669 77,692.5 Q101,716 134,716 Q169,716 192.5,692.5 Q216,669 216,634 Q216,600 192.5,576.5 Q169,553 134,553 Q100,554 76.5,577 Q53,600 53,634 M300,634 Q300,669 324,692.5 Q348,716 381,716 Q416,716 439.5,692.5 Q463,669 463,634 Q463,600 439.5,577 Q416,554 381,553 Q348,553 324,576.5 Q300,600 300,634"/> 
            <glyph glyph-name="¯" unicode="&#xAF;" horiz-adv-x="314" d=" M50,583 L50,714 L314,714 L314,583"/> 
            <glyph glyph-name="´" unicode="&#xB4;" horiz-adv-x="283" d=" M100,719 L283,719 L182,578 L47,578"/> 
            <glyph glyph-name="·" unicode="&#xB7;" horiz-adv-x="203" d=" M110,424 Q162,424 182.5,384 Q203,344 182,303.5 Q161,263 110,263 Q72,263 50,288 Q28,313 28,343.5 Q28,374 50,399 Q72,424 110,424"/> 
            <glyph glyph-name="¸" unicode="&#xB8;" horiz-adv-x="328" d=" M28,-246 L83,-163 Q133,-198 175,-189 Q190,-187 201,-179 Q212,-171 212,-158 Q211,-138 193,-127 Q175,-116 152.5,-116 Q130,-116 109,-119 L133,11 L228,11 L220,-48 Q268,-51 298,-83.5 Q328,-116 327.5,-158.5 Q327,-201 298,-244 Q259,-299 182,-301 Q105,-303 28,-246"/> 
            <glyph glyph-name="¿" unicode="&#xBF;" horiz-adv-x="440" d=" M156,309 L298,309 Q295,253 257,186.5 Q219,120 183.5,70.5 Q148,21 148,5 Q143,-46 181,-68.5 Q219,-91 259,-69.5 Q299,-48 299,5 L436,5 Q440,-75 397.5,-131.5 Q355,-188 291.5,-202.5 Q228,-217 163.5,-207 Q99,-197 53.5,-145 Q8,-93 7,-15 Q7,31 28,73.5 Q49,116 75.5,144.5 Q102,173 126.5,217 Q151,261 156,309 M142,446 Q142,496 184,516.5 Q226,537 267.5,516.5 Q309,496 309,446 Q309,408 283,386 Q257,364 225.5,364 Q194,364 168,386 Q142,408 142,446"/> 
            <glyph glyph-name="À" unicode="&#xC0;" horiz-adv-x="633" d=" M304,724 L345,724 L633,0 L472,0 L443,77 L206,77 L178,0 L16,0 M258,211 L390,211 L325,402 M161,906 L347,906 L400,765 L262,765"/> 
            <glyph glyph-name="Á" unicode="&#xC1;" horiz-adv-x="633" d=" M304,724 L345,724 L633,0 L472,0 L443,77 L206,77 L178,0 L16,0 M258,211 L390,211 L325,402 M296,906 L482,906 L381,765 L243,765"/> 
            <glyph glyph-name="Â" unicode="&#xC2;" horiz-adv-x="633" d=" M304,724 L345,724 L633,0 L472,0 L443,77 L206,77 L178,0 L16,0 M258,211 L390,211 L325,402 M511,759 L359,759 L322,806 L286,759 L135,759 L276,899 L368,899"/> 
            <glyph glyph-name="Ã" unicode="&#xC3;" horiz-adv-x="633" d=" M304,724 L345,724 L633,0 L472,0 L443,77 L206,77 L178,0 L16,0 M258,211 L390,211 L325,402 M240,768 L153,806 Q168,856 197,884 Q226,912 267,911 Q287,910 311,899.5 Q335,889 349.5,880 Q364,871 380.5,875 Q397,879 409,903 L495,864 Q481,814 451,786.5 Q421,759 380,760 Q360,761 336.5,771.5 Q313,782 298,791 Q283,800 267,796 Q251,792 240,768"/> 
            <glyph glyph-name="Ä" unicode="&#xC4;" horiz-adv-x="633" d=" M304,724 L345,724 L633,0 L472,0 L443,77 L206,77 L178,0 L16,0 M258,211 L390,211 L325,402 M120,826 Q120,861 144,884.5 Q168,908 201,908 Q236,908 259.5,884.5 Q283,861 283,826 Q283,792 259.5,768.5 Q236,745 201,745 Q167,746 143.5,769 Q120,792 120,826 M367,826 Q367,861 391,884.5 Q415,908 448,908 Q483,908 506.5,884.5 Q530,861 530,826 Q530,792 506.5,769 Q483,746 448,745 Q415,745 391,768.5 Q367,792 367,826"/> 
            <glyph glyph-name="Å" unicode="&#xC5;" horiz-adv-x="633" d=" M267,851 Q381,851 417.5,818.5 Q454,786 461.5,743 Q469,700 451.5,656 Q434,612 393,591 L633,0 L472,0 L443,77 L206,77 L178,0 L16,0 L256,590 Q215,611 197,655 Q179,699 187,742.5 Q195,786 267,851 M258,211 L390,211 L325,397 M325,764 Q292,764 278.5,738 Q265,712 278.5,686 Q292,660 325,660 Q358,660 372,686 Q386,712 372.5,738 Q359,764 325,764"/> 
            <glyph glyph-name="Æ" unicode="&#xC6;" horiz-adv-x="741" d=" M18,0 L366,715 L731,715 L731,575 L547,575 L547,431 L703,431 L703,285 L547,285 L547,143 L741,143 L741,0 L404,0 L404,110 L239,110 L193,0 M296,243 L404,243 L404,500"/> 
            <glyph glyph-name="Ç" unicode="&#xC7;" horiz-adv-x="568" d=" M211,-224 L266,-146 Q315,-179 358,-171 Q373,-169 384,-161 Q395,-153 395,-142 Q394,-115 360,-106 Q326,-97 292,-105 L314,8 Q244,24 189.5,64.5 Q135,105 103,158 Q71,211 57.5,274 Q44,337 49.5,399.5 Q55,462 81.5,521 Q108,580 151.5,625 Q195,670 262.5,697 Q330,724 411,724 Q489,724 552,696 L535,549 Q475,580 411,580 Q353,580 307,556 Q261,532 237.5,493.5 Q214,455 203,408.5 Q192,362 203,315.5 Q214,269 237.5,230.5 Q261,192 307,168 Q353,144 411,144 Q487,144 549,176 L568,28 Q495,-2 411,-2 L408,-2 L403,-38 Q451,-41 481,-71.5 Q511,-102 510.5,-142 Q510,-182 481,-222 Q442,-274 365,-276 Q288,-278 211,-224"/> 
            <glyph glyph-name="È" unicode="&#xC8;" horiz-adv-x="450" d=" M450,0 L80,0 L80,715 L438,715 L438,572 L223,572 L223,429 L411,429 L411,286 L223,286 L223,143 L450,143 M115,878 L291,878 L340,763 L211,763"/> 
            <glyph glyph-name="É" unicode="&#xC9;" horiz-adv-x="450" d=" M237,879 L413,879 L317,764 L188,764 M450,0 L80,0 L80,715 L438,715 L438,572 L223,572 L223,429 L411,429 L411,286 L223,286 L223,143 L450,143"/> 
            <glyph glyph-name="Ê" unicode="&#xCA;" horiz-adv-x="450" d=" M450,0 L80,0 L80,715 L438,715 L438,572 L223,572 L223,429 L411,429 L411,286 L223,286 L223,143 L450,143 M449,769 L299,769 L262,814 L227,769 L78,769 L217,903 L308,903"/> 
            <glyph glyph-name="Ë" unicode="&#xCB;" horiz-adv-x="450" d=" M74,802 Q74,864 97,885.5 Q120,907 153,907 Q186,907 209.5,885.5 Q233,864 233,833 Q233,802 209.5,781.5 Q186,761 153,761 Q120,762 74,802 M288,802 Q288,864 311.5,885.5 Q335,907 368,907 Q402,907 425,885.5 Q448,864 448,833 Q448,802 425,782 Q402,762 368,761 Q335,761 288,802 M450,0 L80,0 L80,715 L438,715 L438,572 L223,572 L223,429 L411,429 L411,286 L223,286 L223,143 L450,143"/> 
            <glyph glyph-name="Ì" unicode="&#xCC;" horiz-adv-x="223" d=" M223,0 L80,0 L80,715 L223,715 M3,901 L173,901 L222,772 L96,772"/> 
            <glyph glyph-name="Í" unicode="&#xCD;" horiz-adv-x="303" d=" M133,901 L303,901 L210,772 L84,772 M223,0 L80,0 L80,715 L223,715"/> 
            <glyph glyph-name="Î" unicode="&#xCE;" horiz-adv-x="325" d=" M223,0 L80,0 L80,715 L223,715 M325,770 L183,770 L148,818 L115,770 L-27,770 L105,913 L191,913"/> 
            <glyph glyph-name="Ï" unicode="&#xCF;" horiz-adv-x="336" d=" M-30,849 Q-30,883 -7.5,906 Q15,929 47,929 Q80,929 102.5,906 Q125,883 125,849 Q125,816 102.5,793 Q80,770 47,770 Q15,771 -7.5,793.5 Q-30,816 -30,849 M180,849 Q180,883 203,906 Q226,929 257,929 Q290,929 313,906 Q336,883 336,849 Q336,816 313,793.5 Q290,771 257,770 Q226,770 203,793 Q180,816 180,849 M223,0 L80,0 L80,715 L223,715"/> 
            <glyph glyph-name="Ð" unicode="&#xD0;" horiz-adv-x="650" d=" M3,285 L3,418 L80,418 L80,715 L293,715 Q379,715 448.5,684.5 Q518,654 561,603.5 Q604,553 627,489 Q650,425 650,357.5 Q650,290 627,226 Q604,162 561,111.5 Q518,61 448.5,30.5 Q379,0 293,0 L80,0 L80,285 M293,572 L223,572 L223,418 L351,418 L351,285 L223,285 L223,143 L293,143 Q359,143 408,175 Q457,207 479,254.5 Q501,302 501,357.5 Q501,413 479,460.5 Q457,508 408,540 Q359,572 293,572"/> 
            <glyph glyph-name="Ñ" unicode="&#xD1;" horiz-adv-x="623" d=" M223,389 L223,0 L80,0 L80,730 L118,730 L479,310 L479,714 L623,714 L623,-15 L585,-15 M262,776 L175,814 Q190,864 219,892 Q248,920 289,919 Q309,918 333,907.5 Q357,897 371.5,888 Q386,879 402.5,883 Q419,887 431,911 L517,872 Q503,822 473,794.5 Q443,767 402,768 Q382,769 358.5,779.5 Q335,790 320,799 Q305,808 289,804 Q273,800 262,776"/> 
            <glyph glyph-name="Ò" unicode="&#xD2;" horiz-adv-x="793" d=" M335,-10 Q513,-10 585,21.5 Q657,53 701,105 Q745,157 769,223 Q793,289 793,358.5 Q793,428 769,494 Q745,560 701,612 Q657,664 585,695.5 Q513,727 424,727 Q335,727 263,695.5 Q191,664 147,612 Q103,560 79,494 Q55,428 55,358.5 Q55,289 79,223 Q103,157 147,105 Q191,53 335,-10 M424,138 Q365,138 319,162.5 Q273,187 249,226 Q225,265 214,312 Q203,359 214,406 Q225,453 249,492 Q273,531 319,555.5 Q365,580 424,580 Q492,580 542.5,547.5 Q593,515 615.5,465.5 Q638,416 638,359 Q638,302 615.5,252.5 Q593,203 542.5,170.5 Q492,138 424,138 M274,925 L460,925 L513,784 L375,784"/> 
            <glyph glyph-name="Ó" unicode="&#xD3;" horiz-adv-x="793" d=" M513,-10 Q335,-10 263,21.5 Q191,53 147,105 Q103,157 79,223 Q55,289 55,358.5 Q55,428 79,494 Q103,560 147,612 Q191,664 263,695.5 Q335,727 424,727 Q513,727 585,695.5 Q657,664 701,612 Q745,560 769,494 Q793,428 793,358.5 Q793,289 769,223 Q745,157 701,105 Q657,53 513,-10 M424,138 Q483,138 529,162.5 Q575,187 599,226 Q623,265 634,312 Q645,359 634,406 Q623,453 599,492 Q575,531 529,555.5 Q483,580 424,580 Q356,580 305.5,547.5 Q255,515 232.5,465.5 Q210,416 210,359 Q210,302 232.5,252.5 Q255,203 305.5,170.5 Q356,138 424,138 M414,928 L597,928 L496,787 L361,787"/> 
            <glyph glyph-name="Ô" unicode="&#xD4;" horiz-adv-x="793" d=" M335,-10 Q513,-10 585,21.5 Q657,53 701,105 Q745,157 769,223 Q793,289 793,358.5 Q793,428 769,494 Q745,560 701,612 Q657,664 585,695.5 Q513,727 424,727 Q335,727 263,695.5 Q191,664 147,612 Q103,560 79,494 Q55,428 55,358.5 Q55,289 79,223 Q103,157 147,105 Q191,53 335,-10 M424,138 Q365,138 319,162.5 Q273,187 249,226 Q225,265 214,312 Q203,359 214,406 Q225,453 249,492 Q273,531 319,555.5 Q365,580 424,580 Q492,580 542.5,547.5 Q593,515 615.5,465.5 Q638,416 638,359 Q638,302 615.5,252.5 Q593,203 542.5,170.5 Q492,138 424,138 M625,780 L467,780 L428,826 L391,780 L233,780 L380,917 L476,917"/> 
            <glyph glyph-name="Õ" unicode="&#xD5;" horiz-adv-x="793" d=" M513,-10 Q335,-10 263,21.5 Q191,53 147,105 Q103,157 79,223 Q55,289 55,358.5 Q55,428 79,494 Q103,560 147,612 Q191,664 263,695.5 Q335,727 424,727 Q513,727 585,695.5 Q657,664 701,612 Q745,560 769,494 Q793,428 793,358.5 Q793,289 769,223 Q745,157 701,105 Q657,53 513,-10 M424,138 Q483,138 529,162.5 Q575,187 599,226 Q623,265 634,312 Q645,359 634,406 Q623,453 599,492 Q575,531 529,555.5 Q483,580 424,580 Q356,580 305.5,547.5 Q255,515 232.5,465.5 Q210,416 210,359 Q210,302 232.5,252.5 Q255,203 305.5,170.5 Q356,138 424,138 M344,785 L257,823 Q272,873 301,901 Q330,929 371,928 Q391,927 415,916.5 Q439,906 453.5,897 Q468,888 484.5,892 Q501,896 513,920 L599,881 Q585,831 555,803.5 Q525,776 484,777 Q464,778 440.5,788.5 Q417,799 402,808 Q387,817 371,813 Q355,809 344,785"/> 
            <glyph glyph-name="Ö" unicode="&#xD6;" horiz-adv-x="793" d=" M513,-10 Q335,-10 263,21.5 Q191,53 147,105 Q103,157 79,223 Q55,289 55,358.5 Q55,428 79,494 Q103,560 147,612 Q191,664 263,695.5 Q335,727 424,727 Q513,727 585,695.5 Q657,664 701,612 Q745,560 769,494 Q793,428 793,358.5 Q793,289 769,223 Q745,157 701,105 Q657,53 513,-10 M424,138 Q483,138 529,162.5 Q575,187 599,226 Q623,265 634,312 Q645,359 634,406 Q623,453 599,492 Q575,531 529,555.5 Q483,580 424,580 Q356,580 305.5,547.5 Q255,515 232.5,465.5 Q210,416 210,359 Q210,302 232.5,252.5 Q255,203 305.5,170.5 Q356,138 424,138 M216,820 Q216,886 241,908.5 Q266,931 301,931 Q337,931 362,908.5 Q387,886 387,853 Q387,820 362,797.5 Q337,775 301,775 Q266,776 216,820 M475,820 Q475,886 500.5,908.5 Q526,931 560,931 Q596,931 620.5,909 Q645,887 645,853 Q645,820 620.5,798 Q596,776 560,775 Q526,775 475,820"/> 
            <glyph glyph-name="Ø" unicode="&#xD8;" horiz-adv-x="774" d=" M532,700 L580,783 L727,783 L644,639 Q699,593 730.5,526 Q762,459 768,388.5 Q774,318 753,247 Q732,176 689,120.5 Q646,65 572.5,30.5 Q499,-4 407,-4 Q340,-4 283,13 L235,-69 L88,-69 L171,75 Q124,115 93,170 Q62,225 52.5,285.5 Q43,346 48.5,408 Q54,470 82.5,525.5 Q111,581 153.5,624.5 Q196,668 262,693.5 Q328,719 407,719 Q478,719 532,700 M568,507 L357,142 Q362,141 407,141 Q482,141 534.5,181 Q587,221 605.5,278 Q624,335 615,398.5 Q606,462 568,507 M247,206 L458,572 Q450,574 407,574 Q347,574 300.5,547.5 Q254,521 230.5,479 Q207,437 198.5,388.5 Q190,340 203,291 Q216,242 247,206"/> 
            <glyph glyph-name="Ù" unicode="&#xD9;" horiz-adv-x="593" d=" M593,249 Q593,188 571,138 Q549,88 512.5,57.5 Q476,27 429.5,10.5 Q383,-6 334.5,-6 Q286,-6 239.5,10.5 Q193,27 156.5,57.5 Q120,88 98,138 Q76,188 76,249 L76,715 L219,715 L219,250 Q219,207 243,178 Q267,149 301,142 Q335,135 369,142 Q403,149 427,178 Q451,207 451,250 L451,715 L593,715 M195,909 L362,909 L410,770 L286,770"/> 
            <glyph glyph-name="Ú" unicode="&#xDA;" horiz-adv-x="593" d=" M313,909 L480,909 L389,770 L265,770 M593,249 Q593,188 571,138 Q549,88 512.5,57.5 Q476,27 429.5,10.5 Q383,-6 334.5,-6 Q286,-6 239.5,10.5 Q193,27 156.5,57.5 Q120,88 98,138 Q76,188 76,249 L76,715 L219,715 L219,250 Q219,207 243,178 Q267,149 301,142 Q335,135 369,142 Q403,149 427,178 Q451,207 451,250 L451,715 L593,715"/> 
            <glyph glyph-name="Û" unicode="&#xDB;" horiz-adv-x="593" d=" M593,249 Q593,188 571,138 Q549,88 512.5,57.5 Q476,27 429.5,10.5 Q383,-6 334.5,-6 Q286,-6 239.5,10.5 Q193,27 156.5,57.5 Q120,88 98,138 Q76,188 76,249 L76,715 L219,715 L219,250 Q219,207 243,178 Q267,149 301,142 Q335,135 369,142 Q403,149 427,178 Q451,207 451,250 L451,715 L593,715 M522,781 L370,781 L333,828 L297,781 L146,781 L287,921 L379,921"/> 
            <glyph glyph-name="Ü" unicode="&#xDC;" horiz-adv-x="593" d=" M593,249 Q593,188 571,138 Q549,88 512.5,57.5 Q476,27 429.5,10.5 Q383,-6 334.5,-6 Q286,-6 239.5,10.5 Q193,27 156.5,57.5 Q120,88 98,138 Q76,188 76,249 L76,715 L219,715 L219,250 Q219,207 243,178 Q267,149 301,142 Q335,135 369,142 Q403,149 427,178 Q451,207 451,250 L451,715 L593,715 M143,842 Q143,875 165.5,896.5 Q188,918 220,918 Q253,918 275,896.5 Q297,875 297,842 Q297,811 274.5,789.5 Q252,768 220,768 Q188,769 165.5,790 Q143,811 143,842 M377,842 Q377,874 400,896 Q423,918 454,918 Q487,918 509,896.5 Q531,875 531,842 Q531,811 509,790 Q487,769 454,768 Q423,768 400,789.5 Q377,811 377,842"/> 
            <glyph glyph-name="Ý" unicode="&#xDD;" horiz-adv-x="647" d=" M255,0 L255,322 L6,715 L180,715 L326,469 L472,715 L647,715 L397,322 L397,0 M299,913 L482,913 L381,772 L246,772"/> 
            <glyph glyph-name="Þ" unicode="&#xDE;" horiz-adv-x="576" d=" M223,0 L80,0 L80,715 L223,715 L223,590 L361,590 Q418,590 463,565.5 Q508,541 531,502.5 Q554,464 565,417 Q576,370 565,322.5 Q554,275 531,236.5 Q508,198 463,173.5 Q418,149 361,149 L223,149 M223,288 L349,288 Q383,288 402.5,313 Q422,338 422,368 Q422,398 402.5,423 Q383,448 349,448 L223,448"/> 
            <glyph glyph-name="à" unicode="&#xE0;" horiz-adv-x="633" d=" M304,724 L345,724 L633,0 L472,0 L443,77 L206,77 L178,0 L16,0 M258,211 L390,211 L325,402 M161,906 L347,906 L400,765 L262,765"/> 
            <glyph glyph-name="á" unicode="&#xE1;" horiz-adv-x="633" d=" M304,724 L345,724 L633,0 L472,0 L443,77 L206,77 L178,0 L16,0 M258,211 L390,211 L325,402 M296,906 L482,906 L381,765 L243,765"/> 
            <glyph glyph-name="â" unicode="&#xE2;" horiz-adv-x="633" d=" M304,724 L345,724 L633,0 L472,0 L443,77 L206,77 L178,0 L16,0 M258,211 L390,211 L325,402 M511,759 L359,759 L322,806 L286,759 L135,759 L276,899 L368,899"/> 
            <glyph glyph-name="ã" unicode="&#xE3;" horiz-adv-x="633" d=" M304,724 L345,724 L633,0 L472,0 L443,77 L206,77 L178,0 L16,0 M258,211 L390,211 L325,402 M240,768 L153,806 Q168,856 197,884 Q226,912 267,911 Q287,910 311,899.5 Q335,889 349.5,880 Q364,871 380.5,875 Q397,879 409,903 L495,864 Q481,814 451,786.5 Q421,759 380,760 Q360,761 336.5,771.5 Q313,782 298,791 Q283,800 267,796 Q251,792 240,768"/> 
            <glyph glyph-name="ä" unicode="&#xE4;" horiz-adv-x="633" d=" M304,724 L345,724 L633,0 L472,0 L443,77 L206,77 L178,0 L16,0 M258,211 L390,211 L325,402 M120,826 Q120,861 144,884.5 Q168,908 201,908 Q236,908 259.5,884.5 Q283,861 283,826 Q283,792 259.5,768.5 Q236,745 201,745 Q167,746 143.5,769 Q120,792 120,826 M367,826 Q367,861 391,884.5 Q415,908 448,908 Q483,908 506.5,884.5 Q530,861 530,826 Q530,792 506.5,769 Q483,746 448,745 Q415,745 391,768.5 Q367,792 367,826"/> 
            <glyph glyph-name="å" unicode="&#xE5;" horiz-adv-x="633" d=" M267,851 Q381,851 417.5,818.5 Q454,786 461.5,743 Q469,700 451.5,656 Q434,612 393,591 L633,0 L472,0 L443,77 L206,77 L178,0 L16,0 L256,590 Q215,611 197,655 Q179,699 187,742.5 Q195,786 267,851 M258,211 L390,211 L325,397 M325,764 Q292,764 278.5,738 Q265,712 278.5,686 Q292,660 325,660 Q358,660 372,686 Q386,712 372.5,738 Q359,764 325,764"/> 
            <glyph glyph-name="æ" unicode="&#xE6;" horiz-adv-x="741" d=" M18,0 L366,715 L731,715 L731,575 L547,575 L547,431 L703,431 L703,285 L547,285 L547,143 L741,143 L741,0 L404,0 L404,110 L239,110 L193,0 M296,243 L404,243 L404,500"/> 
            <glyph glyph-name="ç" unicode="&#xE7;" horiz-adv-x="568" d=" M211,-224 L266,-146 Q315,-179 358,-171 Q373,-169 384,-161 Q395,-153 395,-142 Q394,-115 360,-106 Q326,-97 292,-105 L314,8 Q244,24 189.5,64.5 Q135,105 103,158 Q71,211 57.5,274 Q44,337 49.5,399.5 Q55,462 81.5,521 Q108,580 151.5,625 Q195,670 262.5,697 Q330,724 411,724 Q489,724 552,696 L535,549 Q475,580 411,580 Q353,580 307,556 Q261,532 237.5,493.5 Q214,455 203,408.5 Q192,362 203,315.5 Q214,269 237.5,230.5 Q261,192 307,168 Q353,144 411,144 Q487,144 549,176 L568,28 Q495,-2 411,-2 L408,-2 L403,-38 Q451,-41 481,-71.5 Q511,-102 510.5,-142 Q510,-182 481,-222 Q442,-274 365,-276 Q288,-278 211,-224"/> 
            <glyph glyph-name="è" unicode="&#xE8;" horiz-adv-x="450" d=" M450,0 L80,0 L80,715 L438,715 L438,572 L223,572 L223,429 L411,429 L411,286 L223,286 L223,143 L450,143 M115,878 L291,878 L340,763 L211,763"/> 
            <glyph glyph-name="é" unicode="&#xE9;" horiz-adv-x="450" d=" M237,879 L413,879 L317,764 L188,764 M450,0 L80,0 L80,715 L438,715 L438,572 L223,572 L223,429 L411,429 L411,286 L223,286 L223,143 L450,143"/> 
            <glyph glyph-name="ê" unicode="&#xEA;" horiz-adv-x="450" d=" M450,0 L80,0 L80,715 L438,715 L438,572 L223,572 L223,429 L411,429 L411,286 L223,286 L223,143 L450,143 M449,769 L299,769 L262,814 L227,769 L78,769 L217,903 L308,903"/> 
            <glyph glyph-name="ë" unicode="&#xEB;" horiz-adv-x="450" d=" M74,802 Q74,864 97,885.5 Q120,907 153,907 Q186,907 209.5,885.5 Q233,864 233,833 Q233,802 209.5,781.5 Q186,761 153,761 Q120,762 74,802 M288,802 Q288,864 311.5,885.5 Q335,907 368,907 Q402,907 425,885.5 Q448,864 448,833 Q448,802 425,782 Q402,762 368,761 Q335,761 288,802 M450,0 L80,0 L80,715 L438,715 L438,572 L223,572 L223,429 L411,429 L411,286 L223,286 L223,143 L450,143"/> 
            <glyph glyph-name="ì" unicode="&#xEC;" horiz-adv-x="223" d=" M223,0 L80,0 L80,715 L223,715 M3,901 L173,901 L222,772 L96,772"/> 
            <glyph glyph-name="í" unicode="&#xED;" horiz-adv-x="303" d=" M133,901 L303,901 L210,772 L84,772 M223,0 L80,0 L80,715 L223,715"/> 
            <glyph glyph-name="î" unicode="&#xEE;" horiz-adv-x="325" d=" M223,0 L80,0 L80,715 L223,715 M325,770 L183,770 L148,818 L115,770 L-27,770 L105,913 L191,913"/> 
            <glyph glyph-name="ï" unicode="&#xEF;" horiz-adv-x="336" d=" M-30,849 Q-30,883 -7.5,906 Q15,929 47,929 Q80,929 102.5,906 Q125,883 125,849 Q125,816 102.5,793 Q80,770 47,770 Q15,771 -7.5,793.5 Q-30,816 -30,849 M180,849 Q180,883 203,906 Q226,929 257,929 Q290,929 313,906 Q336,883 336,849 Q336,816 313,793.5 Q290,771 257,770 Q226,770 203,793 Q180,816 180,849 M223,0 L80,0 L80,715 L223,715"/> 
            <glyph glyph-name="ð" unicode="&#xF0;" horiz-adv-x="650" d=" M3,285 L3,418 L80,418 L80,715 L293,715 Q379,715 448.5,684.5 Q518,654 561,603.5 Q604,553 627,489 Q650,425 650,357.5 Q650,290 627,226 Q604,162 561,111.5 Q518,61 448.5,30.5 Q379,0 293,0 L80,0 L80,285 M293,572 L223,572 L223,418 L351,418 L351,285 L223,285 L223,143 L293,143 Q359,143 408,175 Q457,207 479,254.5 Q501,302 501,357.5 Q501,413 479,460.5 Q457,508 408,540 Q359,572 293,572"/> 
            <glyph glyph-name="ñ" unicode="&#xF1;" horiz-adv-x="623" d=" M223,389 L223,0 L80,0 L80,730 L118,730 L479,310 L479,714 L623,714 L623,-15 L585,-15 M262,776 L175,814 Q190,864 219,892 Q248,920 289,919 Q309,918 333,907.5 Q357,897 371.5,888 Q386,879 402.5,883 Q419,887 431,911 L517,872 Q503,822 473,794.5 Q443,767 402,768 Q382,769 358.5,779.5 Q335,790 320,799 Q305,808 289,804 Q273,800 262,776"/> 
            <glyph glyph-name="ò" unicode="&#xF2;" horiz-adv-x="793" d=" M335,-10 Q513,-10 585,21.5 Q657,53 701,105 Q745,157 769,223 Q793,289 793,358.5 Q793,428 769,494 Q745,560 701,612 Q657,664 585,695.5 Q513,727 424,727 Q335,727 263,695.5 Q191,664 147,612 Q103,560 79,494 Q55,428 55,358.5 Q55,289 79,223 Q103,157 147,105 Q191,53 335,-10 M424,138 Q365,138 319,162.5 Q273,187 249,226 Q225,265 214,312 Q203,359 214,406 Q225,453 249,492 Q273,531 319,555.5 Q365,580 424,580 Q492,580 542.5,547.5 Q593,515 615.5,465.5 Q638,416 638,359 Q638,302 615.5,252.5 Q593,203 542.5,170.5 Q492,138 424,138 M274,925 L460,925 L513,784 L375,784"/> 
            <glyph glyph-name="ó" unicode="&#xF3;" horiz-adv-x="793" d=" M513,-10 Q335,-10 263,21.5 Q191,53 147,105 Q103,157 79,223 Q55,289 55,358.5 Q55,428 79,494 Q103,560 147,612 Q191,664 263,695.5 Q335,727 424,727 Q513,727 585,695.5 Q657,664 701,612 Q745,560 769,494 Q793,428 793,358.5 Q793,289 769,223 Q745,157 701,105 Q657,53 513,-10 M424,138 Q483,138 529,162.5 Q575,187 599,226 Q623,265 634,312 Q645,359 634,406 Q623,453 599,492 Q575,531 529,555.5 Q483,580 424,580 Q356,580 305.5,547.5 Q255,515 232.5,465.5 Q210,416 210,359 Q210,302 232.5,252.5 Q255,203 305.5,170.5 Q356,138 424,138 M414,928 L597,928 L496,787 L361,787"/> 
            <glyph glyph-name="ô" unicode="&#xF4;" horiz-adv-x="793" d=" M335,-10 Q513,-10 585,21.5 Q657,53 701,105 Q745,157 769,223 Q793,289 793,358.5 Q793,428 769,494 Q745,560 701,612 Q657,664 585,695.5 Q513,727 424,727 Q335,727 263,695.5 Q191,664 147,612 Q103,560 79,494 Q55,428 55,358.5 Q55,289 79,223 Q103,157 147,105 Q191,53 335,-10 M424,138 Q365,138 319,162.5 Q273,187 249,226 Q225,265 214,312 Q203,359 214,406 Q225,453 249,492 Q273,531 319,555.5 Q365,580 424,580 Q492,580 542.5,547.5 Q593,515 615.5,465.5 Q638,416 638,359 Q638,302 615.5,252.5 Q593,203 542.5,170.5 Q492,138 424,138 M625,780 L467,780 L428,826 L391,780 L233,780 L380,917 L476,917"/> 
            <glyph glyph-name="õ" unicode="&#xF5;" horiz-adv-x="793" d=" M513,-10 Q335,-10 263,21.5 Q191,53 147,105 Q103,157 79,223 Q55,289 55,358.5 Q55,428 79,494 Q103,560 147,612 Q191,664 263,695.5 Q335,727 424,727 Q513,727 585,695.5 Q657,664 701,612 Q745,560 769,494 Q793,428 793,358.5 Q793,289 769,223 Q745,157 701,105 Q657,53 513,-10 M424,138 Q483,138 529,162.5 Q575,187 599,226 Q623,265 634,312 Q645,359 634,406 Q623,453 599,492 Q575,531 529,555.5 Q483,580 424,580 Q356,580 305.5,547.5 Q255,515 232.5,465.5 Q210,416 210,359 Q210,302 232.5,252.5 Q255,203 305.5,170.5 Q356,138 424,138 M344,785 L257,823 Q272,873 301,901 Q330,929 371,928 Q391,927 415,916.5 Q439,906 453.5,897 Q468,888 484.5,892 Q501,896 513,920 L599,881 Q585,831 555,803.5 Q525,776 484,777 Q464,778 440.5,788.5 Q417,799 402,808 Q387,817 371,813 Q355,809 344,785"/> 
            <glyph glyph-name="ö" unicode="&#xF6;" horiz-adv-x="793" d=" M513,-10 Q335,-10 263,21.5 Q191,53 147,105 Q103,157 79,223 Q55,289 55,358.5 Q55,428 79,494 Q103,560 147,612 Q191,664 263,695.5 Q335,727 424,727 Q513,727 585,695.5 Q657,664 701,612 Q745,560 769,494 Q793,428 793,358.5 Q793,289 769,223 Q745,157 701,105 Q657,53 513,-10 M424,138 Q483,138 529,162.5 Q575,187 599,226 Q623,265 634,312 Q645,359 634,406 Q623,453 599,492 Q575,531 529,555.5 Q483,580 424,580 Q356,580 305.5,547.5 Q255,515 232.5,465.5 Q210,416 210,359 Q210,302 232.5,252.5 Q255,203 305.5,170.5 Q356,138 424,138 M216,820 Q216,886 241,908.5 Q266,931 301,931 Q337,931 362,908.5 Q387,886 387,853 Q387,820 362,797.5 Q337,775 301,775 Q266,776 216,820 M475,820 Q475,886 500.5,908.5 Q526,931 560,931 Q596,931 620.5,909 Q645,887 645,853 Q645,820 620.5,798 Q596,776 560,775 Q526,775 475,820"/> 
            <glyph glyph-name="ø" unicode="&#xF8;" horiz-adv-x="774" d=" M532,700 L580,783 L727,783 L644,639 Q699,593 730.5,526 Q762,459 768,388.5 Q774,318 753,247 Q732,176 689,120.5 Q646,65 572.5,30.5 Q499,-4 407,-4 Q340,-4 283,13 L235,-69 L88,-69 L171,75 Q124,115 93,170 Q62,225 52.5,285.5 Q43,346 48.5,408 Q54,470 82.5,525.5 Q111,581 153.5,624.5 Q196,668 262,693.5 Q328,719 407,719 Q478,719 532,700 M568,507 L357,142 Q362,141 407,141 Q482,141 534.5,181 Q587,221 605.5,278 Q624,335 615,398.5 Q606,462 568,507 M247,206 L458,572 Q450,574 407,574 Q347,574 300.5,547.5 Q254,521 230.5,479 Q207,437 198.5,388.5 Q190,340 203,291 Q216,242 247,206"/> 
            <glyph glyph-name="ù" unicode="&#xF9;" horiz-adv-x="593" d=" M593,249 Q593,188 571,138 Q549,88 512.5,57.5 Q476,27 429.5,10.5 Q383,-6 334.5,-6 Q286,-6 239.5,10.5 Q193,27 156.5,57.5 Q120,88 98,138 Q76,188 76,249 L76,715 L219,715 L219,250 Q219,207 243,178 Q267,149 301,142 Q335,135 369,142 Q403,149 427,178 Q451,207 451,250 L451,715 L593,715 M195,909 L362,909 L410,770 L286,770"/> 
            <glyph glyph-name="ú" unicode="&#xFA;" horiz-adv-x="593" d=" M313,909 L480,909 L389,770 L265,770 M593,249 Q593,188 571,138 Q549,88 512.5,57.5 Q476,27 429.5,10.5 Q383,-6 334.5,-6 Q286,-6 239.5,10.5 Q193,27 156.5,57.5 Q120,88 98,138 Q76,188 76,249 L76,715 L219,715 L219,250 Q219,207 243,178 Q267,149 301,142 Q335,135 369,142 Q403,149 427,178 Q451,207 451,250 L451,715 L593,715"/> 
            <glyph glyph-name="û" unicode="&#xFB;" horiz-adv-x="593" d=" M593,249 Q593,188 571,138 Q549,88 512.5,57.5 Q476,27 429.5,10.5 Q383,-6 334.5,-6 Q286,-6 239.5,10.5 Q193,27 156.5,57.5 Q120,88 98,138 Q76,188 76,249 L76,715 L219,715 L219,250 Q219,207 243,178 Q267,149 301,142 Q335,135 369,142 Q403,149 427,178 Q451,207 451,250 L451,715 L593,715 M522,781 L370,781 L333,828 L297,781 L146,781 L287,921 L379,921"/> 
            <glyph glyph-name="ü" unicode="&#xFC;" horiz-adv-x="593" d=" M593,249 Q593,188 571,138 Q549,88 512.5,57.5 Q476,27 429.5,10.5 Q383,-6 334.5,-6 Q286,-6 239.5,10.5 Q193,27 156.5,57.5 Q120,88 98,138 Q76,188 76,249 L76,715 L219,715 L219,250 Q219,207 243,178 Q267,149 301,142 Q335,135 369,142 Q403,149 427,178 Q451,207 451,250 L451,715 L593,715 M143,842 Q143,875 165.5,896.5 Q188,918 220,918 Q253,918 275,896.5 Q297,875 297,842 Q297,811 274.5,789.5 Q252,768 220,768 Q188,769 165.5,790 Q143,811 143,842 M377,842 Q377,874 400,896 Q423,918 454,918 Q487,918 509,896.5 Q531,875 531,842 Q531,811 509,790 Q487,769 454,768 Q423,768 400,789.5 Q377,811 377,842"/> 
            <glyph glyph-name="ý" unicode="&#xFD;" horiz-adv-x="647" d=" M255,0 L255,322 L6,715 L180,715 L326,469 L472,715 L647,715 L397,322 L397,0 M299,913 L482,913 L381,772 L246,772"/> 
            <glyph glyph-name="þ" unicode="&#xFE;" horiz-adv-x="576" d=" M223,0 L80,0 L80,715 L223,715 L223,590 L361,590 Q418,590 463,565.5 Q508,541 531,502.5 Q554,464 565,417 Q576,370 565,322.5 Q554,275 531,236.5 Q508,198 463,173.5 Q418,149 361,149 L223,149 M223,288 L349,288 Q383,288 402.5,313 Q422,338 422,368 Q422,398 402.5,423 Q383,448 349,448 L223,448"/> 
            <glyph glyph-name="ÿ" unicode="&#xFF;" horiz-adv-x="647" d=" M255,0 L255,322 L6,715 L180,715 L326,469 L472,715 L647,715 L397,322 L397,0 M119,843 Q119,878 143,901.5 Q167,925 200,925 Q235,925 258.5,901.5 Q282,878 282,843 Q282,809 258.5,785.5 Q235,762 200,762 Q166,763 142.5,786 Q119,809 119,843 M366,843 Q366,878 390,901.5 Q414,925 447,925 Q482,925 505.5,901.5 Q529,878 529,843 Q529,809 505.5,786 Q482,763 447,762 Q414,762 390,785.5 Q366,809 366,843"/> 
            <glyph glyph-name="Ā" unicode="&#x100;" horiz-adv-x="633" d=" M303,729 L346,729 L633,0 L472,0 L443,77 L206,77 L178,0 L16,0 M258,211 L390,211 L325,408 M192,768 L192,899 L456,899 L456,768"/> 
            <glyph glyph-name="ā" unicode="&#x101;" horiz-adv-x="633" d=" M303,729 L346,729 L633,0 L472,0 L443,77 L206,77 L178,0 L16,0 M258,211 L390,211 L325,408 M192,768 L192,899 L456,899 L456,768"/> 
            <glyph glyph-name="Ă" unicode="&#x102;" horiz-adv-x="633" d=" M303,729 L346,729 L633,0 L472,0 L443,77 L206,77 L178,0 L16,0 M258,211 L390,211 L325,408 M279,867 Q371,867 371,909 L465,909 Q468,866 454.5,836 Q441,806 417,792 Q393,778 370.5,772.5 Q348,767 325,767 Q308,767 290.5,770 Q273,773 252,782.5 Q231,792 216,806.5 Q201,821 191.5,848 Q182,875 185,909 L279,909"/> 
            <glyph glyph-name="ă" unicode="&#x103;" horiz-adv-x="633" d=" M303,729 L346,729 L633,0 L472,0 L443,77 L206,77 L178,0 L16,0 M258,211 L390,211 L325,408 M279,867 Q371,867 371,909 L465,909 Q468,866 454.5,836 Q441,806 417,792 Q393,778 370.5,772.5 Q348,767 325,767 Q308,767 290.5,770 Q273,773 252,782.5 Q231,792 216,806.5 Q201,821 191.5,848 Q182,875 185,909 L279,909"/> 
            <glyph glyph-name="Ą" unicode="&#x104;" horiz-adv-x="637" d=" M16,0 L317,741 L332,741 L633,0 Q594,-33 569,-74 Q544,-115 558,-141 Q568,-155 588.5,-154 Q609,-153 628,-143 L637,-240 Q587,-262 526,-254.5 Q465,-247 441,-201 Q422,-168 429,-129.5 Q436,-91 455.5,-59 Q475,-27 504,0 L472,0 L443,77 L206,77 L178,0 M258,211 L390,211 L325,397"/> 
            <glyph glyph-name="ą" unicode="&#x105;" horiz-adv-x="637" d=" M16,0 L317,741 L332,741 L633,0 Q594,-33 569,-74 Q544,-115 558,-141 Q568,-155 588.5,-154 Q609,-153 628,-143 L637,-240 Q587,-262 526,-254.5 Q465,-247 441,-201 Q422,-168 429,-129.5 Q436,-91 455.5,-59 Q475,-27 504,0 L472,0 L443,77 L206,77 L178,0 M258,211 L390,211 L325,397"/> 
            <glyph glyph-name="Ć" unicode="&#x106;" horiz-adv-x="568" d=" M535,549 Q475,580 411,580 Q353,580 307,556 Q261,532 237.5,493.5 Q214,455 203,408.5 Q192,362 203,315.5 Q214,269 237.5,230.5 Q261,192 307,168 Q353,144 411,144 Q487,144 549,176 L568,28 Q495,-2 411,-2 Q311,-2 233,38 Q155,78 114.5,142 Q74,206 55,283.5 Q36,361 55,438.5 Q74,516 114.5,580 Q155,644 233,684 Q311,724 411,724 Q489,724 552,696 M348,916 L518,916 L424,774 L299,774"/> 
            <glyph glyph-name="ć" unicode="&#x107;" horiz-adv-x="568" d=" M535,549 Q475,580 411,580 Q353,580 307,556 Q261,532 237.5,493.5 Q214,455 203,408.5 Q192,362 203,315.5 Q214,269 237.5,230.5 Q261,192 307,168 Q353,144 411,144 Q487,144 549,176 L568,28 Q495,-2 411,-2 Q311,-2 233,38 Q155,78 114.5,142 Q74,206 55,283.5 Q36,361 55,438.5 Q74,516 114.5,580 Q155,644 233,684 Q311,724 411,724 Q489,724 552,696 M348,916 L518,916 L424,774 L299,774"/> 
            <glyph glyph-name="Ĉ" unicode="&#x108;" horiz-adv-x="568" d=" M535,549 L552,696 Q489,724 411,724 Q311,724 233,684 Q155,644 114.5,580 Q74,516 55,438.5 Q36,361 55,283.5 Q74,206 114.5,142 Q155,78 233,38 Q311,-2 411,-2 Q495,-2 568,28 L549,176 Q487,144 411,144 Q353,144 307,168 Q261,192 237.5,230.5 Q214,269 203,315.5 Q192,362 203,408.5 Q214,455 237.5,493.5 Q261,532 307,556 Q353,580 411,580 Q475,580 535,549 M555,771 L403,771 L366,818 L330,771 L179,771 L320,911 L412,911"/> 
            <glyph glyph-name="ĉ" unicode="&#x109;" horiz-adv-x="568" d=" M535,549 L552,696 Q489,724 411,724 Q311,724 233,684 Q155,644 114.5,580 Q74,516 55,438.5 Q36,361 55,283.5 Q74,206 114.5,142 Q155,78 233,38 Q311,-2 411,-2 Q495,-2 568,28 L549,176 Q487,144 411,144 Q353,144 307,168 Q261,192 237.5,230.5 Q214,269 203,315.5 Q192,362 203,408.5 Q214,455 237.5,493.5 Q261,532 307,556 Q353,580 411,580 Q475,580 535,549 M555,771 L403,771 L366,818 L330,771 L179,771 L320,911 L412,911"/> 
            <glyph glyph-name="Ċ" unicode="&#x10A;" horiz-adv-x="568" d=" M535,549 Q475,580 411,580 Q353,580 307,556 Q261,532 237.5,493.5 Q214,455 203,408.5 Q192,362 203,315.5 Q214,269 237.5,230.5 Q261,192 307,168 Q353,144 411,144 Q487,144 549,176 L568,28 Q495,-2 411,-2 Q311,-2 233,38 Q155,78 114.5,142 Q74,206 55,283.5 Q36,361 55,438.5 Q74,516 114.5,580 Q155,644 233,684 Q311,724 411,724 Q489,724 552,696 M390,929 Q442,929 463,891.5 Q484,854 462.5,816 Q441,778 390,778 Q351,778 329,801.5 Q307,825 307,853.5 Q307,882 329,905.5 Q351,929 390,929"/> 
            <glyph glyph-name="ċ" unicode="&#x10B;" horiz-adv-x="568" d=" M535,549 Q475,580 411,580 Q353,580 307,556 Q261,532 237.5,493.5 Q214,455 203,408.5 Q192,362 203,315.5 Q214,269 237.5,230.5 Q261,192 307,168 Q353,144 411,144 Q487,144 549,176 L568,28 Q495,-2 411,-2 Q311,-2 233,38 Q155,78 114.5,142 Q74,206 55,283.5 Q36,361 55,438.5 Q74,516 114.5,580 Q155,644 233,684 Q311,724 411,724 Q489,724 552,696 M390,929 Q442,929 463,891.5 Q484,854 462.5,816 Q441,778 390,778 Q351,778 329,801.5 Q307,825 307,853.5 Q307,882 329,905.5 Q351,929 390,929"/> 
            <glyph glyph-name="Č" unicode="&#x10C;" horiz-adv-x="568" d=" M535,549 Q475,580 411,580 Q353,580 307,556 Q261,532 237.5,493.5 Q214,455 203,408.5 Q192,362 203,315.5 Q214,269 237.5,230.5 Q261,192 307,168 Q353,144 411,144 Q487,144 549,176 L568,28 Q495,-2 411,-2 Q311,-2 233,38 Q155,78 114.5,142 Q74,206 55,283.5 Q36,361 55,438.5 Q74,516 114.5,580 Q155,644 233,684 Q311,724 411,724 Q489,724 552,696 M415,912 L567,912 L424,772 L332,772 L191,912 L342,912 L378,865"/> 
            <glyph glyph-name="č" unicode="&#x10D;" horiz-adv-x="568" d=" M535,549 Q475,580 411,580 Q353,580 307,556 Q261,532 237.5,493.5 Q214,455 203,408.5 Q192,362 203,315.5 Q214,269 237.5,230.5 Q261,192 307,168 Q353,144 411,144 Q487,144 549,176 L568,28 Q495,-2 411,-2 Q311,-2 233,38 Q155,78 114.5,142 Q74,206 55,283.5 Q36,361 55,438.5 Q74,516 114.5,580 Q155,644 233,684 Q311,724 411,724 Q489,724 552,696 M415,912 L567,912 L424,772 L332,772 L191,912 L342,912 L378,865"/> 
            <glyph glyph-name="Ď" unicode="&#x10E;" horiz-adv-x="650" d=" M293,715 Q379,715 448.5,684.5 Q518,654 561,603.5 Q604,553 627,489 Q650,425 650,357.5 Q650,290 627,226 Q604,162 561,111.5 Q518,61 448.5,30.5 Q379,0 293,0 L80,0 L80,715 M293,572 L223,572 L223,143 L293,143 Q359,143 408,175 Q457,207 479,254.5 Q501,302 501,357.5 Q501,413 479,460.5 Q457,508 408,540 Q359,572 293,572 M337,908 L489,908 L346,768 L254,768 L113,908 L264,908 L300,861"/> 
            <glyph glyph-name="ď" unicode="&#x10F;" horiz-adv-x="650" d=" M293,715 Q379,715 448.5,684.5 Q518,654 561,603.5 Q604,553 627,489 Q650,425 650,357.5 Q650,290 627,226 Q604,162 561,111.5 Q518,61 448.5,30.5 Q379,0 293,0 L80,0 L80,715 M293,572 L223,572 L223,143 L293,143 Q359,143 408,175 Q457,207 479,254.5 Q501,302 501,357.5 Q501,413 479,460.5 Q457,508 408,540 Q359,572 293,572 M337,908 L489,908 L346,768 L254,768 L113,908 L264,908 L300,861"/> 
            <glyph glyph-name="Đ" unicode="&#x110;" horiz-adv-x="650" d=" M3,285 L3,418 L80,418 L80,715 L293,715 Q379,715 448.5,684.5 Q518,654 561,603.5 Q604,553 627,489 Q650,425 650,357.5 Q650,290 627,226 Q604,162 561,111.5 Q518,61 448.5,30.5 Q379,0 293,0 L80,0 L80,285 M293,572 L223,572 L223,418 L351,418 L351,285 L223,285 L223,143 L293,143 Q359,143 408,175 Q457,207 479,254.5 Q501,302 501,357.5 Q501,413 479,460.5 Q457,508 408,540 Q359,572 293,572"/> 
            <glyph glyph-name="đ" unicode="&#x111;" horiz-adv-x="650" d=" M3,285 L3,418 L80,418 L80,715 L293,715 Q379,715 448.5,684.5 Q518,654 561,603.5 Q604,553 627,489 Q650,425 650,357.5 Q650,290 627,226 Q604,162 561,111.5 Q518,61 448.5,30.5 Q379,0 293,0 L80,0 L80,285 M293,572 L223,572 L223,418 L351,418 L351,285 L223,285 L223,143 L293,143 Q359,143 408,175 Q457,207 479,254.5 Q501,302 501,357.5 Q501,413 479,460.5 Q457,508 408,540 Q359,572 293,572"/> 
            <glyph glyph-name="Ē" unicode="&#x112;" horiz-adv-x="450" d=" M450,0 L80,0 L80,715 L438,715 L438,572 L223,572 L223,429 L411,429 L411,286 L223,286 L223,143 L450,143 M135,775 L135,896 L397,896 L397,775"/> 
            <glyph glyph-name="ē" unicode="&#x113;" horiz-adv-x="450" d=" M450,0 L80,0 L80,715 L438,715 L438,572 L223,572 L223,429 L411,429 L411,286 L223,286 L223,143 L450,143 M135,775 L135,896 L397,896 L397,775"/> 
            <glyph glyph-name="Ĕ" unicode="&#x114;" horiz-adv-x="450" d=" M450,0 L80,0 L80,715 L438,715 L438,572 L223,572 L223,429 L411,429 L411,286 L223,286 L223,143 L450,143 M218,864 Q310,864 310,906 L404,906 Q407,863 393.5,833 Q380,803 356,789 Q332,775 309.5,769.5 Q287,764 264,764 Q247,764 229.5,767 Q212,770 191,779.5 Q170,789 155,803.5 Q140,818 130.5,845 Q121,872 124,906 L218,906"/> 
            <glyph glyph-name="ĕ" unicode="&#x115;" horiz-adv-x="450" d=" M450,0 L80,0 L80,715 L438,715 L438,572 L223,572 L223,429 L411,429 L411,286 L223,286 L223,143 L450,143 M218,864 Q310,864 310,906 L404,906 Q407,863 393.5,833 Q380,803 356,789 Q332,775 309.5,769.5 Q287,764 264,764 Q247,764 229.5,767 Q212,770 191,779.5 Q170,789 155,803.5 Q140,818 130.5,845 Q121,872 124,906 L218,906"/> 
            <glyph glyph-name="Ė" unicode="&#x116;" horiz-adv-x="450" d=" M450,0 L80,0 L80,715 L438,715 L438,572 L223,572 L223,429 L411,429 L411,286 L223,286 L223,143 L450,143 M263,912 Q315,912 335.5,875.5 Q356,839 335,802.5 Q314,766 263,766 Q224,766 202,789 Q180,812 180,839 Q180,866 202,889 Q224,912 263,912"/> 
            <glyph glyph-name="ė" unicode="&#x117;" horiz-adv-x="450" d=" M450,0 L80,0 L80,715 L438,715 L438,572 L223,572 L223,429 L411,429 L411,286 L223,286 L223,143 L450,143 M263,912 Q315,912 335.5,875.5 Q356,839 335,802.5 Q314,766 263,766 Q224,766 202,789 Q180,812 180,839 Q180,866 202,889 Q224,912 263,912"/> 
            <glyph glyph-name="Ę" unicode="&#x118;" horiz-adv-x="458" d=" M450,143 L450,0 Q407,-26 387,-65.5 Q367,-105 380,-131 Q390,-144 410,-143 Q430,-142 449,-133 L458,-227 Q422,-240 385.5,-242.5 Q349,-245 315,-232 Q281,-219 265,-189 Q242,-147 264.5,-94.5 Q287,-42 331,0 L80,0 L80,715 L438,715 L438,572 L223,572 L223,429 L411,429 L411,286 L223,286 L223,143"/> 
            <glyph glyph-name="ę" unicode="&#x119;" horiz-adv-x="458" d=" M450,143 L450,0 Q407,-26 387,-65.5 Q367,-105 380,-131 Q390,-144 410,-143 Q430,-142 449,-133 L458,-227 Q422,-240 385.5,-242.5 Q349,-245 315,-232 Q281,-219 265,-189 Q242,-147 264.5,-94.5 Q287,-42 331,0 L80,0 L80,715 L438,715 L438,572 L223,572 L223,429 L411,429 L411,286 L223,286 L223,143"/> 
            <glyph glyph-name="Ě" unicode="&#x11A;" horiz-adv-x="454" d=" M450,0 L80,0 L80,715 L438,715 L438,572 L223,572 L223,429 L411,429 L411,286 L223,286 L223,143 L450,143 M306,890 L454,890 L315,762 L225,762 L87,890 L235,890 L270,847"/> 
            <glyph glyph-name="ě" unicode="&#x11B;" horiz-adv-x="454" d=" M450,0 L80,0 L80,715 L438,715 L438,572 L223,572 L223,429 L411,429 L411,286 L223,286 L223,143 L450,143 M306,890 L454,890 L315,762 L225,762 L87,890 L235,890 L270,847"/> 
            <glyph glyph-name="Ĝ" unicode="&#x11C;" horiz-adv-x="596" d=" M596,44 L596,358 L451,358 L451,143 Q425,139 411,139 Q354,139 309,162.5 Q264,186 240,224 Q216,262 204,308 Q192,354 202.5,400 Q213,446 236.5,485 Q260,524 306,549 Q352,574 411,576 Q495,578 561,550 L578,695 Q485,724 411,721 Q331,718 265,691.5 Q199,665 156.5,622.5 Q114,580 85.5,525.5 Q57,471 51.5,411.5 Q46,352 53.5,292.5 Q61,233 91,180 Q121,127 163.5,85.5 Q206,44 270.5,20 Q335,-4 411,-4 Q511,-4 596,44 M568,772 L416,772 L379,819 L343,772 L192,772 L333,912 L425,912"/> 
            <glyph glyph-name="ĝ" unicode="&#x11D;" horiz-adv-x="596" d=" M596,44 L596,358 L451,358 L451,143 Q425,139 411,139 Q354,139 309,162.5 Q264,186 240,224 Q216,262 204,308 Q192,354 202.5,400 Q213,446 236.5,485 Q260,524 306,549 Q352,574 411,576 Q495,578 561,550 L578,695 Q485,724 411,721 Q331,718 265,691.5 Q199,665 156.5,622.5 Q114,580 85.5,525.5 Q57,471 51.5,411.5 Q46,352 53.5,292.5 Q61,233 91,180 Q121,127 163.5,85.5 Q206,44 270.5,20 Q335,-4 411,-4 Q511,-4 596,44 M568,772 L416,772 L379,819 L343,772 L192,772 L333,912 L425,912"/> 
            <glyph glyph-name="Ğ" unicode="&#x11E;" horiz-adv-x="596" d=" M596,44 Q511,-4 411,-4 Q335,-4 270.5,20 Q206,44 163.5,85.5 Q121,127 91,180 Q61,233 53.5,292.5 Q46,352 51.5,411.5 Q57,471 85.5,525.5 Q114,580 156.5,622.5 Q199,665 265,691.5 Q331,718 411,721 Q485,724 578,695 L561,550 Q495,578 411,576 Q352,574 306,549 Q260,524 236.5,485 Q213,446 202.5,400 Q192,354 204,308 Q216,262 240,224 Q264,186 309,162.5 Q354,139 411,139 Q425,139 451,143 L451,358 L596,358 M332,865 Q424,865 424,907 L518,907 Q521,864 507.5,834 Q494,804 470,790 Q446,776 423.5,770.5 Q401,765 378,765 Q361,765 343.5,768 Q326,771 305,780.5 Q284,790 269,804.5 Q254,819 244.5,846 Q235,873 238,907 L332,907"/> 
            <glyph glyph-name="ğ" unicode="&#x11F;" horiz-adv-x="596" d=" M596,44 Q511,-4 411,-4 Q335,-4 270.5,20 Q206,44 163.5,85.5 Q121,127 91,180 Q61,233 53.5,292.5 Q46,352 51.5,411.5 Q57,471 85.5,525.5 Q114,580 156.5,622.5 Q199,665 265,691.5 Q331,718 411,721 Q485,724 578,695 L561,550 Q495,578 411,576 Q352,574 306,549 Q260,524 236.5,485 Q213,446 202.5,400 Q192,354 204,308 Q216,262 240,224 Q264,186 309,162.5 Q354,139 411,139 Q425,139 451,143 L451,358 L596,358 M332,865 Q424,865 424,907 L518,907 Q521,864 507.5,834 Q494,804 470,790 Q446,776 423.5,770.5 Q401,765 378,765 Q361,765 343.5,768 Q326,771 305,780.5 Q284,790 269,804.5 Q254,819 244.5,846 Q235,873 238,907 L332,907"/> 
            <glyph glyph-name="Ġ" unicode="&#x120;" horiz-adv-x="596" d=" M596,44 Q511,-4 411,-4 Q335,-4 270.5,20 Q206,44 163.5,85.5 Q121,127 91,180 Q61,233 53.5,292.5 Q46,352 51.5,411.5 Q57,471 85.5,525.5 Q114,580 156.5,622.5 Q199,665 265,691.5 Q331,718 411,721 Q485,724 578,695 L561,550 Q495,578 411,576 Q352,574 306,549 Q260,524 236.5,485 Q213,446 202.5,400 Q192,354 204,308 Q216,262 240,224 Q264,186 309,162.5 Q354,139 411,139 Q425,139 451,143 L451,358 L596,358 M391,919 Q431,919 453,896 Q475,873 474.5,845 Q474,817 452,794 Q430,771 391,771 Q352,771 329.5,794 Q307,817 307,845 Q307,873 329.5,896 Q352,919 391,919"/> 
            <glyph glyph-name="ġ" unicode="&#x121;" horiz-adv-x="596" d=" M596,44 Q511,-4 411,-4 Q335,-4 270.5,20 Q206,44 163.5,85.5 Q121,127 91,180 Q61,233 53.5,292.5 Q46,352 51.5,411.5 Q57,471 85.5,525.5 Q114,580 156.5,622.5 Q199,665 265,691.5 Q331,718 411,721 Q485,724 578,695 L561,550 Q495,578 411,576 Q352,574 306,549 Q260,524 236.5,485 Q213,446 202.5,400 Q192,354 204,308 Q216,262 240,224 Q264,186 309,162.5 Q354,139 411,139 Q425,139 451,143 L451,358 L596,358 M391,919 Q431,919 453,896 Q475,873 474.5,845 Q474,817 452,794 Q430,771 391,771 Q352,771 329.5,794 Q307,817 307,845 Q307,873 329.5,896 Q352,919 391,919"/> 
            <glyph glyph-name="Ģ" unicode="&#x122;" horiz-adv-x="596" d=" M400,-260 L284,-260 L322,-56 L470,-56 M596,44 Q511,-4 411,-4 Q335,-4 270.5,20 Q206,44 163.5,85.5 Q121,127 91,180 Q61,233 53.5,292.5 Q46,352 51.5,411.5 Q57,471 85.5,525.5 Q114,580 156.5,622.5 Q199,665 265,691.5 Q331,718 411,721 Q485,724 578,695 L561,550 Q495,578 411,576 Q352,574 306,549 Q260,524 236.5,485 Q213,446 202.5,400 Q192,354 204,308 Q216,262 240,224 Q264,186 309,162.5 Q354,139 411,139 Q425,139 451,143 L451,358 L596,358"/> 
            <glyph glyph-name="ģ" unicode="&#x123;" horiz-adv-x="596" d=" M400,-260 L284,-260 L322,-56 L470,-56 M596,44 Q511,-4 411,-4 Q335,-4 270.5,20 Q206,44 163.5,85.5 Q121,127 91,180 Q61,233 53.5,292.5 Q46,352 51.5,411.5 Q57,471 85.5,525.5 Q114,580 156.5,622.5 Q199,665 265,691.5 Q331,718 411,721 Q485,724 578,695 L561,550 Q495,578 411,576 Q352,574 306,549 Q260,524 236.5,485 Q213,446 202.5,400 Q192,354 204,308 Q216,262 240,224 Q264,186 309,162.5 Q354,139 411,139 Q425,139 451,143 L451,358 L596,358"/> 
            <glyph glyph-name="Ĥ" unicode="&#x124;" horiz-adv-x="580" d=" M580,0 L437,0 L437,286 L223,286 L223,0 L80,0 L80,715 L223,715 L223,429 L437,429 L437,715 L580,715 M517,772 L365,772 L328,819 L292,772 L141,772 L282,912 L374,912"/> 
            <glyph glyph-name="ĥ" unicode="&#x125;" horiz-adv-x="580" d=" M580,0 L437,0 L437,286 L223,286 L223,0 L80,0 L80,715 L223,715 L223,429 L437,429 L437,715 L580,715 M517,772 L365,772 L328,819 L292,772 L141,772 L282,912 L374,912"/> 
            <glyph glyph-name="Ħ" unicode="&#x126;" horiz-adv-x="643" d=" M17,523 L17,629 L80,629 L80,715 L223,715 L223,629 L437,629 L437,715 L580,715 L580,629 L643,629 L643,523 L580,523 L580,0 L437,0 L437,286 L223,286 L223,0 L80,0 L80,523 M223,429 L437,429 L437,523 L223,523"/> 
            <glyph glyph-name="ħ" unicode="&#x127;" horiz-adv-x="643" d=" M17,523 L17,629 L80,629 L80,715 L223,715 L223,629 L437,629 L437,715 L580,715 L580,629 L643,629 L643,523 L580,523 L580,0 L437,0 L437,286 L223,286 L223,0 L80,0 L80,523 M223,429 L437,429 L437,523 L223,523"/> 
            <glyph glyph-name="Ĩ" unicode="&#x128;" horiz-adv-x="304" d=" M223,0 L80,0 L80,715 L223,715 M71,777 L-9,811 Q4,854 31,879 Q58,904 95,903 Q113,902 135,892.5 Q157,883 170.5,875.5 Q184,868 199,871.5 Q214,875 225,896 L304,861 Q291,817 263.5,793 Q236,769 199,770 Q184,771 166.5,777.5 Q149,784 137,791 Q125,798 112.5,801.5 Q100,805 90,799.5 Q80,794 71,777"/> 
            <glyph glyph-name="ĩ" unicode="&#x129;" horiz-adv-x="304" d=" M223,0 L80,0 L80,715 L223,715 M71,777 L-9,811 Q4,854 31,879 Q58,904 95,903 Q113,902 135,892.5 Q157,883 170.5,875.5 Q184,868 199,871.5 Q214,875 225,896 L304,861 Q291,817 263.5,793 Q236,769 199,770 Q184,771 166.5,777.5 Q149,784 137,791 Q125,798 112.5,801.5 Q100,805 90,799.5 Q80,794 71,777"/> 
            <glyph glyph-name="Ī" unicode="&#x12A;" horiz-adv-x="283" d=" M223,0 L80,0 L80,715 L223,715 M25,779 L25,902 L283,902 L283,779"/> 
            <glyph glyph-name="ī" unicode="&#x12B;" horiz-adv-x="283" d=" M223,0 L80,0 L80,715 L223,715 M25,779 L25,902 L283,902 L283,779"/> 
            <glyph glyph-name="Ĭ" unicode="&#x12C;" horiz-adv-x="296" d=" M223,0 L80,0 L80,715 L223,715 M107,868 Q199,868 199,910 L293,910 Q296,867 282.5,837 Q269,807 245,793 Q221,779 198.5,773.5 Q176,768 153,768 Q136,768 118.5,771 Q101,774 80,783.5 Q59,793 44,807.5 Q29,822 19.5,849 Q10,876 13,910 L107,910"/> 
            <glyph glyph-name="ĭ" unicode="&#x12D;" horiz-adv-x="296" d=" M223,0 L80,0 L80,715 L223,715 M107,868 Q199,868 199,910 L293,910 Q296,867 282.5,837 Q269,807 245,793 Q221,779 198.5,773.5 Q176,768 153,768 Q136,768 118.5,771 Q101,774 80,783.5 Q59,793 44,807.5 Q29,822 19.5,849 Q10,876 13,910 L107,910"/> 
            <glyph glyph-name="Į" unicode="&#x12E;" horiz-adv-x="244" d=" M223,0 Q191,-35 172,-73 Q153,-111 165,-135 Q175,-149 195.5,-148 Q216,-147 235,-137 L244,-234 Q194,-256 133,-248.5 Q72,-241 48,-195 Q29,-164 37,-126.5 Q45,-89 64.5,-58 Q84,-27 112,0 L80,0 L80,715 L223,715"/> 
            <glyph glyph-name="į" unicode="&#x12F;" horiz-adv-x="244" d=" M223,0 Q191,-35 172,-73 Q153,-111 165,-135 Q175,-149 195.5,-148 Q216,-147 235,-137 L244,-234 Q194,-256 133,-248.5 Q72,-241 48,-195 Q29,-164 37,-126.5 Q45,-89 64.5,-58 Q84,-27 112,0 L80,0 L80,715 L223,715"/> 
            <glyph glyph-name="İ" unicode="&#x130;" horiz-adv-x="247" d=" M223,0 L80,0 L80,715 L223,715 M154,928 Q206,928 226.5,889 Q247,850 226,810.5 Q205,771 154,771 Q116,771 94,795.5 Q72,820 72,849.5 Q72,879 94,903.5 Q116,928 154,928"/> 
            <glyph glyph-name="ı" unicode="&#x131;" horiz-adv-x="223" d=" M223,0 L80,0 L80,715 L223,715"/> 
            <glyph glyph-name="Ĳ" unicode="&#x132;" horiz-adv-x="690" d=" M223,0 L80,0 L80,715 L223,715 M336,0 L336,143 L473,143 Q504,143 524.5,164 Q545,185 545,215 L545,715 L690,715 L690,215 Q690,0 477,0"/> 
            <glyph glyph-name="ĳ" unicode="&#x133;" horiz-adv-x="690" d=" M223,0 L80,0 L80,715 L223,715 M336,0 L336,143 L473,143 Q504,143 524.5,164 Q545,185 545,215 L545,715 L690,715 L690,215 Q690,0 477,0"/> 
            <glyph glyph-name="Ĵ" unicode="&#x134;" horiz-adv-x="488" d=" M32,0 L32,143 L169,143 Q200,143 220.5,164 Q241,185 241,215 L241,715 L386,715 L386,215 Q386,0 173,0 M488,769 L336,769 L299,816 L263,769 L112,769 L253,909 L345,909"/> 
            <glyph glyph-name="ĵ" unicode="&#x135;" horiz-adv-x="488" d=" M32,0 L32,143 L169,143 Q200,143 220.5,164 Q241,185 241,215 L241,715 L386,715 L386,215 Q386,0 173,0 M488,769 L336,769 L299,816 L263,769 L112,769 L253,909 L345,909"/> 
            <glyph glyph-name="Ķ" unicode="&#x136;" horiz-adv-x="590" d=" M206,-254 L322,-254 L392,-50 L244,-50 M80,0 L80,715 L223,715 L223,430 L403,715 L570,715 L338,362 L590,0 L413,0 L223,280 L223,0"/> 
            <glyph glyph-name="ķ" unicode="&#x137;" horiz-adv-x="590" d=" M206,-254 L322,-254 L392,-50 L244,-50 M80,0 L80,715 L223,715 L223,430 L403,715 L570,715 L338,362 L590,0 L413,0 L223,280 L223,0"/> 
            <glyph glyph-name="ĸ" unicode="&#x138;" horiz-adv-x="590" d=" M80,0 L80,715 L223,715 L223,430 L403,715 L570,715 L338,362 L590,0 L413,0 L223,280 L223,0"/> 
            <glyph glyph-name="Ĺ" unicode="&#x139;" horiz-adv-x="450" d=" M80,715 L223,715 L223,143 L450,143 L450,0 L80,0 M136,909 L303,909 L211,767 L88,767"/> 
            <glyph glyph-name="ĺ" unicode="&#x13A;" horiz-adv-x="450" d=" M80,715 L223,715 L223,143 L450,143 L450,0 L80,0 M136,909 L303,909 L211,767 L88,767"/> 
            <glyph glyph-name="Ļ" unicode="&#x13B;" horiz-adv-x="450" d=" M274,-247 L159,-247 L197,-57 L343,-57 M80,715 L223,715 L223,143 L450,143 L450,0 L80,0"/> 
            <glyph glyph-name="ļ" unicode="&#x13C;" horiz-adv-x="450" d=" M274,-247 L159,-247 L197,-57 L343,-57 M80,715 L223,715 L223,143 L450,143 L450,0 L80,0"/> 
            <glyph glyph-name="Ľ" unicode="&#x13D;" horiz-adv-x="485" d=" M80,715 L223,715 L223,143 L450,143 L450,0 L80,0 M347,718 L485,718 L412,514 L307,514"/> 
            <glyph glyph-name="ľ" unicode="&#x13E;" horiz-adv-x="485" d=" M80,715 L223,715 L223,143 L450,143 L450,0 L80,0 M347,718 L485,718 L412,514 L307,514"/> 
            <glyph glyph-name="Ŀ" unicode="&#x13F;" horiz-adv-x="472" d=" M80,715 L223,715 L223,143 L450,143 L450,0 L80,0 M379,462 Q431,462 451.5,422 Q472,382 451,341.5 Q430,301 379,301 Q341,301 319,326 Q297,351 297,381.5 Q297,412 319,437 Q341,462 379,462"/> 
            <glyph glyph-name="ŀ" unicode="&#x140;" horiz-adv-x="472" d=" M80,715 L223,715 L223,143 L450,143 L450,0 L80,0 M379,462 Q431,462 451.5,422 Q472,382 451,341.5 Q430,301 379,301 Q341,301 319,326 Q297,351 297,381.5 Q297,412 319,437 Q341,462 379,462"/> 
            <glyph glyph-name="Ł" unicode="&#x141;" horiz-adv-x="453" d=" M85,377 L85,715 L227,715 L227,426 L371,474 L371,345 L227,296 L227,144 L453,144 L453,0 L85,0 L85,248 L0,219 L0,348"/> 
            <glyph glyph-name="ł" unicode="&#x142;" horiz-adv-x="453" d=" M85,377 L85,715 L227,715 L227,426 L371,474 L371,345 L227,296 L227,144 L453,144 L453,0 L85,0 L85,248 L0,219 L0,348"/> 
            <glyph glyph-name="Ń" unicode="&#x143;" horiz-adv-x="623" d=" M223,389 L223,0 L80,0 L80,730 L118,730 L479,310 L479,714 L623,714 L623,-15 L585,-15 M303,908 L486,908 L385,767 L250,767"/> 
            <glyph glyph-name="ń" unicode="&#x144;" horiz-adv-x="623" d=" M223,389 L223,0 L80,0 L80,730 L118,730 L479,310 L479,714 L623,714 L623,-15 L585,-15 M303,908 L486,908 L385,767 L250,767"/> 
            <glyph glyph-name="Ņ" unicode="&#x145;" horiz-adv-x="623" d=" M392,-244 L277,-244 L315,-54 L461,-54 M223,389 L223,0 L80,0 L80,730 L118,730 L479,310 L479,714 L623,714 L623,-15 L585,-15"/> 
            <glyph glyph-name="ņ" unicode="&#x146;" horiz-adv-x="623" d=" M392,-244 L277,-244 L315,-54 L461,-54 M223,389 L223,0 L80,0 L80,730 L118,730 L479,310 L479,714 L623,714 L623,-15 L585,-15"/> 
            <glyph glyph-name="Ň" unicode="&#x147;" horiz-adv-x="623" d=" M223,389 L223,0 L80,0 L80,730 L118,730 L479,310 L479,714 L623,714 L623,-15 L585,-15 M381,906 L533,906 L390,766 L298,766 L157,906 L308,906 L344,859"/> 
            <glyph glyph-name="ň" unicode="&#x148;" horiz-adv-x="623" d=" M223,389 L223,0 L80,0 L80,730 L118,730 L479,310 L479,714 L623,714 L623,-15 L585,-15 M381,906 L533,906 L390,766 L298,766 L157,906 L308,906 L344,859"/> 
            <glyph glyph-name="ŉ" unicode="&#x149;" horiz-adv-x="623" d=" M223,389 L223,0 L80,0 L80,730 L118,730 L479,310 L479,714 L623,714 L623,-15 L585,-15"/> 
            <glyph glyph-name="Ŋ" unicode="&#x14A;" horiz-adv-x="623" d=" M488,93 L223,389 L223,0 L80,0 L80,730 L118,730 L479,310 L479,714 L623,714 L623,-34 Q623,-128 566,-181 Q509,-234 419,-234 L379,-234 L379,-97 L415,-97 Q447,-97 467.5,-80 Q488,-63 488,-34"/> 
            <glyph glyph-name="ŋ" unicode="&#x14B;" horiz-adv-x="623" d=" M488,93 L223,389 L223,0 L80,0 L80,730 L118,730 L479,310 L479,714 L623,714 L623,-34 Q623,-128 566,-181 Q509,-234 419,-234 L379,-234 L379,-97 L415,-97 Q447,-97 467.5,-80 Q488,-63 488,-34"/> 
            <glyph glyph-name="Ō" unicode="&#x14C;" horiz-adv-x="793" d=" M513,-10 Q335,-10 263,21.5 Q191,53 147,105 Q103,157 79,223 Q55,289 55,358.5 Q55,428 79,494 Q103,560 147,612 Q191,664 263,695.5 Q335,727 424,727 Q513,727 585,695.5 Q657,664 701,612 Q745,560 769,494 Q793,428 793,358.5 Q793,289 769,223 Q745,157 701,105 Q657,53 513,-10 M424,138 Q483,138 529,162.5 Q575,187 599,226 Q623,265 634,312 Q645,359 634,406 Q623,453 599,492 Q575,531 529,555.5 Q483,580 424,580 Q356,580 305.5,547.5 Q255,515 232.5,465.5 Q210,416 210,359 Q210,302 232.5,252.5 Q255,203 305.5,170.5 Q356,138 424,138 M293,784 L293,917 L571,917 L571,784"/> 
            <glyph glyph-name="ō" unicode="&#x14D;" horiz-adv-x="793" d=" M513,-10 Q335,-10 263,21.5 Q191,53 147,105 Q103,157 79,223 Q55,289 55,358.5 Q55,428 79,494 Q103,560 147,612 Q191,664 263,695.5 Q335,727 424,727 Q513,727 585,695.5 Q657,664 701,612 Q745,560 769,494 Q793,428 793,358.5 Q793,289 769,223 Q745,157 701,105 Q657,53 513,-10 M424,138 Q483,138 529,162.5 Q575,187 599,226 Q623,265 634,312 Q645,359 634,406 Q623,453 599,492 Q575,531 529,555.5 Q483,580 424,580 Q356,580 305.5,547.5 Q255,515 232.5,465.5 Q210,416 210,359 Q210,302 232.5,252.5 Q255,203 305.5,170.5 Q356,138 424,138 M293,784 L293,917 L571,917 L571,784"/> 
            <glyph glyph-name="Ŏ" unicode="&#x14E;" horiz-adv-x="793" d=" M513,-10 Q335,-10 263,21.5 Q191,53 147,105 Q103,157 79,223 Q55,289 55,358.5 Q55,428 79,494 Q103,560 147,612 Q191,664 263,695.5 Q335,727 424,727 Q513,727 585,695.5 Q657,664 701,612 Q745,560 769,494 Q793,428 793,358.5 Q793,289 769,223 Q745,157 701,105 Q657,53 513,-10 M424,138 Q483,138 529,162.5 Q575,187 599,226 Q623,265 634,312 Q645,359 634,406 Q623,453 599,492 Q575,531 529,555.5 Q483,580 424,580 Q356,580 305.5,547.5 Q255,515 232.5,465.5 Q210,416 210,359 Q210,302 232.5,252.5 Q255,203 305.5,170.5 Q356,138 424,138 M427,885 Q476,885 476,927 L577,927 Q580,892 570.5,865 Q561,838 545,823 Q529,808 506.5,798.5 Q484,789 465,786 Q446,783 427,783 Q403,783 379,788.5 Q355,794 329,808 Q303,822 288,853 Q273,884 276,927 L377,927 Q377,885 427,885"/> 
            <glyph glyph-name="ŏ" unicode="&#x14F;" horiz-adv-x="793" d=" M513,-10 Q335,-10 263,21.5 Q191,53 147,105 Q103,157 79,223 Q55,289 55,358.5 Q55,428 79,494 Q103,560 147,612 Q191,664 263,695.5 Q335,727 424,727 Q513,727 585,695.5 Q657,664 701,612 Q745,560 769,494 Q793,428 793,358.5 Q793,289 769,223 Q745,157 701,105 Q657,53 513,-10 M424,138 Q483,138 529,162.5 Q575,187 599,226 Q623,265 634,312 Q645,359 634,406 Q623,453 599,492 Q575,531 529,555.5 Q483,580 424,580 Q356,580 305.5,547.5 Q255,515 232.5,465.5 Q210,416 210,359 Q210,302 232.5,252.5 Q255,203 305.5,170.5 Q356,138 424,138 M427,885 Q476,885 476,927 L577,927 Q580,892 570.5,865 Q561,838 545,823 Q529,808 506.5,798.5 Q484,789 465,786 Q446,783 427,783 Q403,783 379,788.5 Q355,794 329,808 Q303,822 288,853 Q273,884 276,927 L377,927 Q377,885 427,885"/> 
            <glyph glyph-name="Ő" unicode="&#x150;" horiz-adv-x="793" d=" M513,-10 Q335,-10 263,21.5 Q191,53 147,105 Q103,157 79,223 Q55,289 55,358.5 Q55,428 79,494 Q103,560 147,612 Q191,664 263,695.5 Q335,727 424,727 Q513,727 585,695.5 Q657,664 701,612 Q745,560 769,494 Q793,428 793,358.5 Q793,289 769,223 Q745,157 701,105 Q657,53 513,-10 M424,138 Q483,138 529,162.5 Q575,187 599,226 Q623,265 634,312 Q645,359 634,406 Q623,453 599,492 Q575,531 529,555.5 Q483,580 424,580 Q356,580 305.5,547.5 Q255,515 232.5,465.5 Q210,416 210,359 Q210,302 232.5,252.5 Q255,203 305.5,170.5 Q356,138 424,138 M294,913 L463,913 L370,775 L245,775 M513,913 L682,913 L589,775 L464,775"/> 
            <glyph glyph-name="ő" unicode="&#x151;" horiz-adv-x="793" d=" M513,-10 Q335,-10 263,21.5 Q191,53 147,105 Q103,157 79,223 Q55,289 55,358.5 Q55,428 79,494 Q103,560 147,612 Q191,664 263,695.5 Q335,727 424,727 Q513,727 585,695.5 Q657,664 701,612 Q745,560 769,494 Q793,428 793,358.5 Q793,289 769,223 Q745,157 701,105 Q657,53 513,-10 M424,138 Q483,138 529,162.5 Q575,187 599,226 Q623,265 634,312 Q645,359 634,406 Q623,453 599,492 Q575,531 529,555.5 Q483,580 424,580 Q356,580 305.5,547.5 Q255,515 232.5,465.5 Q210,416 210,359 Q210,302 232.5,252.5 Q255,203 305.5,170.5 Q356,138 424,138 M294,913 L463,913 L370,775 L245,775 M513,913 L682,913 L589,775 L464,775"/> 
            <glyph glyph-name="Œ" unicode="&#x152;" horiz-adv-x="798" d=" M399,-5 Q312,-5 241,26 Q170,57 126.5,108 Q83,159 59.5,224 Q36,289 36,357 Q36,425 59.5,490 Q83,555 126.5,606 Q170,657 241,688 Q312,719 399,719 Q424,719 466,715 L788,715 L788,572 L586,572 L586,430 L760,430 L760,290 L586,290 L586,142 L798,142 L798,0 L466,0 Q445,-5 399,-5 M452,124 L452,592 Q438,594 399,594 Q303,594 247,521.5 Q191,449 189,360 Q189,269 245,195.5 Q301,122 399,122 Q436,122 452,124"/> 
            <glyph glyph-name="œ" unicode="&#x153;" horiz-adv-x="798" d=" M399,-5 Q312,-5 241,26 Q170,57 126.5,108 Q83,159 59.5,224 Q36,289 36,357 Q36,425 59.5,490 Q83,555 126.5,606 Q170,657 241,688 Q312,719 399,719 Q424,719 466,715 L788,715 L788,572 L586,572 L586,430 L760,430 L760,290 L586,290 L586,142 L798,142 L798,0 L466,0 Q445,-5 399,-5 M452,124 L452,592 Q438,594 399,594 Q303,594 247,521.5 Q191,449 189,360 Q189,269 245,195.5 Q301,122 399,122 Q436,122 452,124"/> 
            <glyph glyph-name="Ŕ" unicode="&#x154;" horiz-adv-x="598" d=" M598,0 L436,0 L292,273 L223,273 L223,0 L80,0 L80,715 L362,715 Q423,715 470,688 Q517,661 541,619.5 Q565,578 571,527.5 Q577,477 564,431 Q551,385 517,347.5 Q483,310 432,295 M223,572 L223,412 L349,412 Q383,412 402.5,437 Q422,462 422,492 Q422,522 402.5,547 Q383,572 349,572 M271,906 L432,906 L343,764 L224,764"/> 
            <glyph glyph-name="ŕ" unicode="&#x155;" horiz-adv-x="598" d=" M598,0 L436,0 L292,273 L223,273 L223,0 L80,0 L80,715 L362,715 Q423,715 470,688 Q517,661 541,619.5 Q565,578 571,527.5 Q577,477 564,431 Q551,385 517,347.5 Q483,310 432,295 M223,572 L223,412 L349,412 Q383,412 402.5,437 Q422,462 422,492 Q422,522 402.5,547 Q383,572 349,572 M271,906 L432,906 L343,764 L224,764"/> 
            <glyph glyph-name="Ŗ" unicode="&#x156;" horiz-adv-x="598" d=" M337,-247 L222,-247 L260,-57 L406,-57 M598,0 L436,0 L292,273 L223,273 L223,0 L80,0 L80,715 L362,715 Q423,715 470,688 Q517,661 541,619.5 Q565,578 571,527.5 Q577,477 564,431 Q551,385 517,347.5 Q483,310 432,295 M223,572 L223,412 L349,412 Q383,412 402.5,437 Q422,462 422,492 Q422,522 402.5,547 Q383,572 349,572"/> 
            <glyph glyph-name="ŗ" unicode="&#x157;" horiz-adv-x="598" d=" M337,-247 L222,-247 L260,-57 L406,-57 M598,0 L436,0 L292,273 L223,273 L223,0 L80,0 L80,715 L362,715 Q423,715 470,688 Q517,661 541,619.5 Q565,578 571,527.5 Q577,477 564,431 Q551,385 517,347.5 Q483,310 432,295 M223,572 L223,412 L349,412 Q383,412 402.5,437 Q422,462 422,492 Q422,522 402.5,547 Q383,572 349,572"/> 
            <glyph glyph-name="Ř" unicode="&#x158;" horiz-adv-x="598" d=" M598,0 L436,0 L292,273 L223,273 L223,0 L80,0 L80,715 L362,715 Q423,715 470,688 Q517,661 541,619.5 Q565,578 571,527.5 Q577,477 564,431 Q551,385 517,347.5 Q483,310 432,295 M223,572 L223,412 L349,412 Q383,412 402.5,437 Q422,462 422,492 Q422,522 402.5,547 Q383,572 349,572 M330,901 L482,901 L339,761 L247,761 L106,901 L257,901 L293,854"/> 
            <glyph glyph-name="ř" unicode="&#x159;" horiz-adv-x="598" d=" M598,0 L436,0 L292,273 L223,273 L223,0 L80,0 L80,715 L362,715 Q423,715 470,688 Q517,661 541,619.5 Q565,578 571,527.5 Q577,477 564,431 Q551,385 517,347.5 Q483,310 432,295 M223,572 L223,412 L349,412 Q383,412 402.5,437 Q422,462 422,492 Q422,522 402.5,547 Q383,572 349,572 M330,901 L482,901 L339,761 L247,761 L106,901 L257,901 L293,854"/> 
            <glyph glyph-name="Ś" unicode="&#x15A;" horiz-adv-x="489" d=" M47,46 L65,196 Q119,158 175,147 Q231,136 269,139 Q301,141 323.5,162 Q346,183 343,211 Q341,239 322,255.5 Q303,272 269,284 Q170,320 113.5,370 Q57,420 57,502 Q57,592 113.5,654 Q170,716 259,720 Q338,724 437,690 L419,552 Q338,585 273,582 Q237,580 218.5,557 Q200,534 202,502 Q205,475 225.5,458.5 Q246,442 282,430 Q489,354 489,211 Q489,120 430.5,59.5 Q372,-1 273,-6 Q164,-14 47,46 M249,902 L408,902 L320,773 L203,773"/> 
            <glyph glyph-name="ś" unicode="&#x15B;" horiz-adv-x="489" d=" M47,46 L65,196 Q119,158 175,147 Q231,136 269,139 Q301,141 323.5,162 Q346,183 343,211 Q341,239 322,255.5 Q303,272 269,284 Q170,320 113.5,370 Q57,420 57,502 Q57,592 113.5,654 Q170,716 259,720 Q338,724 437,690 L419,552 Q338,585 273,582 Q237,580 218.5,557 Q200,534 202,502 Q205,475 225.5,458.5 Q246,442 282,430 Q489,354 489,211 Q489,120 430.5,59.5 Q372,-1 273,-6 Q164,-14 47,46 M249,902 L408,902 L320,773 L203,773"/> 
            <glyph glyph-name="Ŝ" unicode="&#x15C;" horiz-adv-x="489" d=" M47,46 L65,196 Q119,158 175,147 Q231,136 269,139 Q301,141 323.5,162 Q346,183 343,211 Q341,239 322,255.5 Q303,272 269,284 Q170,320 113.5,370 Q57,420 57,502 Q57,592 113.5,654 Q170,716 259,720 Q338,724 437,690 L419,552 Q338,585 273,582 Q237,580 218.5,557 Q200,534 202,502 Q205,475 225.5,458.5 Q246,442 282,430 Q489,354 489,211 Q489,120 430.5,59.5 Q372,-1 273,-6 Q164,-14 47,46 M449,769 L306,769 L271,820 L236,769 L93,769 L227,922 L314,922"/> 
            <glyph glyph-name="ŝ" unicode="&#x15D;" horiz-adv-x="489" d=" M47,46 L65,196 Q119,158 175,147 Q231,136 269,139 Q301,141 323.5,162 Q346,183 343,211 Q341,239 322,255.5 Q303,272 269,284 Q170,320 113.5,370 Q57,420 57,502 Q57,592 113.5,654 Q170,716 259,720 Q338,724 437,690 L419,552 Q338,585 273,582 Q237,580 218.5,557 Q200,534 202,502 Q205,475 225.5,458.5 Q246,442 282,430 Q489,354 489,211 Q489,120 430.5,59.5 Q372,-1 273,-6 Q164,-14 47,46 M449,769 L306,769 L271,820 L236,769 L93,769 L227,922 L314,922"/> 
            <glyph glyph-name="Ş" unicode="&#x15E;" horiz-adv-x="489" d=" M47,46 L65,196 Q119,158 175,147 Q231,136 269,139 Q301,141 323.5,162 Q346,183 343,211 Q341,239 322,255.5 Q303,272 269,284 Q170,320 113.5,370 Q57,420 57,502 Q57,592 113.5,654 Q170,716 259,720 Q338,724 437,690 L419,552 Q338,585 273,582 Q237,580 218.5,557 Q200,534 202,502 Q205,475 225.5,458.5 Q246,442 282,430 Q489,354 489,211 Q489,129 441.5,71.5 Q394,14 311,-1 L306,-38 Q374,-43 398,-100 Q422,-157 378,-210 Q342,-257 270,-259 Q198,-261 126,-211 L177,-139 Q224,-170 264,-162 Q298,-158 298,-135 Q297,-109 265.5,-101.5 Q234,-94 201,-100 L220,-5 Q131,3 47,46"/> 
            <glyph glyph-name="ş" unicode="&#x15F;" horiz-adv-x="489" d=" M47,46 L65,196 Q119,158 175,147 Q231,136 269,139 Q301,141 323.5,162 Q346,183 343,211 Q341,239 322,255.5 Q303,272 269,284 Q170,320 113.5,370 Q57,420 57,502 Q57,592 113.5,654 Q170,716 259,720 Q338,724 437,690 L419,552 Q338,585 273,582 Q237,580 218.5,557 Q200,534 202,502 Q205,475 225.5,458.5 Q246,442 282,430 Q489,354 489,211 Q489,129 441.5,71.5 Q394,14 311,-1 L306,-38 Q374,-43 398,-100 Q422,-157 378,-210 Q342,-257 270,-259 Q198,-261 126,-211 L177,-139 Q224,-170 264,-162 Q298,-158 298,-135 Q297,-109 265.5,-101.5 Q234,-94 201,-100 L220,-5 Q131,3 47,46"/> 
            <glyph glyph-name="Š" unicode="&#x160;" horiz-adv-x="489" d=" M47,46 L65,196 Q119,158 175,147 Q231,136 269,139 Q301,141 323.5,162 Q346,183 343,211 Q341,239 322,255.5 Q303,272 269,284 Q170,320 113.5,370 Q57,420 57,502 Q57,592 113.5,654 Q170,716 259,720 Q338,724 437,690 L419,552 Q338,585 273,582 Q237,580 218.5,557 Q200,534 202,502 Q205,475 225.5,458.5 Q246,442 282,430 Q489,354 489,211 Q489,120 430.5,59.5 Q372,-1 273,-6 Q164,-14 47,46 M309,893 L462,893 L318,767 L225,767 L83,893 L235,893 L272,851"/> 
            <glyph glyph-name="š" unicode="&#x161;" horiz-adv-x="489" d=" M47,46 L65,196 Q119,158 175,147 Q231,136 269,139 Q301,141 323.5,162 Q346,183 343,211 Q341,239 322,255.5 Q303,272 269,284 Q170,320 113.5,370 Q57,420 57,502 Q57,592 113.5,654 Q170,716 259,720 Q338,724 437,690 L419,552 Q338,585 273,582 Q237,580 218.5,557 Q200,534 202,502 Q205,475 225.5,458.5 Q246,442 282,430 Q489,354 489,211 Q489,120 430.5,59.5 Q372,-1 273,-6 Q164,-14 47,46 M307,890 L460,890 L316,764 L223,764 L81,890 L233,890 L270,848"/> 
            <glyph glyph-name="Ţ" unicode="&#x162;" horiz-adv-x="519" d=" M341,0 L318,0 L311,-51 Q355,-54 382.5,-84 Q410,-114 410,-153 Q410,-192 383,-231 Q347,-282 276.5,-284 Q206,-286 135,-233 L186,-157 Q230,-189 270,-181 Q284,-179 294,-171.5 Q304,-164 304,-152 Q303,-126 271.5,-117.5 Q240,-109 209,-116 L230,0 L198,0 L198,572 L20,572 L20,714 L519,714 L519,572 L341,572"/> 
            <glyph glyph-name="ţ" unicode="&#x163;" horiz-adv-x="519" d=" M341,0 L318,0 L311,-51 Q355,-54 382.5,-84 Q410,-114 410,-153 Q410,-192 383,-231 Q347,-282 276.5,-284 Q206,-286 135,-233 L186,-157 Q230,-189 270,-181 Q284,-179 294,-171.5 Q304,-164 304,-152 Q303,-126 271.5,-117.5 Q240,-109 209,-116 L230,0 L198,0 L198,572 L20,572 L20,714 L519,714 L519,572 L341,572"/> 
            <glyph glyph-name="Ť" unicode="&#x164;" horiz-adv-x="519" d=" M341,0 L198,0 L198,572 L20,572 L20,714 L519,714 L519,572 L341,572 M309,904 L461,904 L318,764 L226,764 L85,904 L236,904 L272,857"/> 
            <glyph glyph-name="ť" unicode="&#x165;" horiz-adv-x="519" d=" M341,0 L198,0 L198,572 L20,572 L20,714 L519,714 L519,572 L341,572 M309,904 L461,904 L318,764 L226,764 L85,904 L236,904 L272,857"/> 
            <glyph glyph-name="Ŧ" unicode="&#x166;" horiz-adv-x="519" d=" M99,244 L99,364 L198,364 L198,572 L20,572 L20,714 L519,714 L519,572 L341,572 L341,364 L447,364 L447,244 L341,244 L341,0 L198,0 L198,244"/> 
            <glyph glyph-name="ŧ" unicode="&#x167;" horiz-adv-x="519" d=" M99,244 L99,364 L198,364 L198,572 L20,572 L20,714 L519,714 L519,572 L341,572 L341,364 L447,364 L447,244 L341,244 L341,0 L198,0 L198,244"/> 
            <glyph glyph-name="Ũ" unicode="&#x168;" horiz-adv-x="593" d=" M593,249 Q593,188 571,138 Q549,88 512.5,57.5 Q476,27 429.5,10.5 Q383,-6 334.5,-6 Q286,-6 239.5,10.5 Q193,27 156.5,57.5 Q120,88 98,138 Q76,188 76,249 L76,715 L219,715 L219,250 Q219,207 243,178 Q267,149 301,142 Q335,135 369,142 Q403,149 427,178 Q451,207 451,250 L451,715 L593,715 M251,777 L166,814 Q180,861 209,888.5 Q238,916 277,915 Q297,914 320,904 Q343,894 357.5,885.5 Q372,877 388,880.5 Q404,884 416,907 L500,870 Q486,822 457,795.5 Q428,769 388,770 Q372,771 353.5,778 Q335,785 322,792.5 Q309,800 295.5,804 Q282,808 271,802 Q260,796 251,777"/> 
            <glyph glyph-name="ũ" unicode="&#x169;" horiz-adv-x="593" d=" M593,249 Q593,188 571,138 Q549,88 512.5,57.5 Q476,27 429.5,10.5 Q383,-6 334.5,-6 Q286,-6 239.5,10.5 Q193,27 156.5,57.5 Q120,88 98,138 Q76,188 76,249 L76,715 L219,715 L219,250 Q219,207 243,178 Q267,149 301,142 Q335,135 369,142 Q403,149 427,178 Q451,207 451,250 L451,715 L593,715 M251,777 L166,814 Q180,861 209,888.5 Q238,916 277,915 Q297,914 320,904 Q343,894 357.5,885.5 Q372,877 388,880.5 Q404,884 416,907 L500,870 Q486,822 457,795.5 Q428,769 388,770 Q372,771 353.5,778 Q335,785 322,792.5 Q309,800 295.5,804 Q282,808 271,802 Q260,796 251,777"/> 
            <glyph glyph-name="Ū" unicode="&#x16A;" horiz-adv-x="593" d=" M593,249 Q593,188 571,138 Q549,88 512.5,57.5 Q476,27 429.5,10.5 Q383,-6 334.5,-6 Q286,-6 239.5,10.5 Q193,27 156.5,57.5 Q120,88 98,138 Q76,188 76,249 L76,715 L219,715 L219,250 Q219,207 243,178 Q267,149 301,142 Q335,135 369,142 Q403,149 427,178 Q451,207 451,250 L451,715 L593,715 M207,777 L207,894 L462,894 L462,777"/> 
            <glyph glyph-name="ū" unicode="&#x16B;" horiz-adv-x="593" d=" M593,249 Q593,188 571,138 Q549,88 512.5,57.5 Q476,27 429.5,10.5 Q383,-6 334.5,-6 Q286,-6 239.5,10.5 Q193,27 156.5,57.5 Q120,88 98,138 Q76,188 76,249 L76,715 L219,715 L219,250 Q219,207 243,178 Q267,149 301,142 Q335,135 369,142 Q403,149 427,178 Q451,207 451,250 L451,715 L593,715 M207,777 L207,894 L462,894 L462,777"/> 
            <glyph glyph-name="Ŭ" unicode="&#x16C;" horiz-adv-x="593" d=" M593,249 Q593,188 571,138 Q549,88 512.5,57.5 Q476,27 429.5,10.5 Q383,-6 334.5,-6 Q286,-6 239.5,10.5 Q193,27 156.5,57.5 Q120,88 98,138 Q76,188 76,249 L76,715 L219,715 L219,250 Q219,207 243,178 Q267,149 301,142 Q335,135 369,142 Q403,149 427,178 Q451,207 451,250 L451,715 L593,715 M338,855 Q388,855 388,898 L488,898 Q491,863 481,835.5 Q471,808 455.5,793 Q440,778 417.5,768 Q395,758 376,755 Q357,752 338,752 Q314,752 290.5,758 Q267,764 241,778 Q215,792 200,823 Q185,854 189,898 L289,898 Q289,855 338,855"/> 
            <glyph glyph-name="ŭ" unicode="&#x16D;" horiz-adv-x="593" d=" M593,249 Q593,188 571,138 Q549,88 512.5,57.5 Q476,27 429.5,10.5 Q383,-6 334.5,-6 Q286,-6 239.5,10.5 Q193,27 156.5,57.5 Q120,88 98,138 Q76,188 76,249 L76,715 L219,715 L219,250 Q219,207 243,178 Q267,149 301,142 Q335,135 369,142 Q403,149 427,178 Q451,207 451,250 L451,715 L593,715 M338,855 Q388,855 388,898 L488,898 Q491,863 481,835.5 Q471,808 455.5,793 Q440,778 417.5,768 Q395,758 376,755 Q357,752 338,752 Q314,752 290.5,758 Q267,764 241,778 Q215,792 200,823 Q185,854 189,898 L289,898 Q289,855 338,855"/> 
            <glyph glyph-name="Ů" unicode="&#x16E;" horiz-adv-x="593" d=" M593,249 Q593,188 571,138 Q549,88 512.5,57.5 Q476,27 429.5,10.5 Q383,-6 334.5,-6 Q286,-6 239.5,10.5 Q193,27 156.5,57.5 Q120,88 98,138 Q76,188 76,249 L76,715 L219,715 L219,250 Q219,207 243,178 Q267,149 301,142 Q335,135 369,142 Q403,149 427,178 Q451,207 451,250 L451,715 L593,715 M336,901 Q305,901 292,879.5 Q279,858 292,836 Q305,814 336,814 Q367,814 380.5,836 Q394,858 381,879.5 Q368,901 336,901 M335,975 Q386,975 420,951 Q454,927 462,893 Q470,859 461.5,825 Q453,791 419,767 Q385,743 335,743 Q285,743 251.5,767 Q218,791 210,825 Q202,859 210,893 Q218,927 251.5,951 Q285,975 335,975"/> 
            <glyph glyph-name="ů" unicode="&#x16F;" horiz-adv-x="593" d=" M593,249 Q593,188 571,138 Q549,88 512.5,57.5 Q476,27 429.5,10.5 Q383,-6 334.5,-6 Q286,-6 239.5,10.5 Q193,27 156.5,57.5 Q120,88 98,138 Q76,188 76,249 L76,715 L219,715 L219,250 Q219,207 243,178 Q267,149 301,142 Q335,135 369,142 Q403,149 427,178 Q451,207 451,250 L451,715 L593,715 M336,901 Q305,901 292,879.5 Q279,858 292,836 Q305,814 336,814 Q367,814 380.5,836 Q394,858 381,879.5 Q368,901 336,901 M335,975 Q386,975 420,951 Q454,927 462,893 Q470,859 461.5,825 Q453,791 419,767 Q385,743 335,743 Q285,743 251.5,767 Q218,791 210,825 Q202,859 210,893 Q218,927 251.5,951 Q285,975 335,975"/> 
            <glyph glyph-name="Ű" unicode="&#x170;" horiz-adv-x="593" d=" M593,249 Q593,188 571,138 Q549,88 512.5,57.5 Q476,27 429.5,10.5 Q383,-6 334.5,-6 Q286,-6 239.5,10.5 Q193,27 156.5,57.5 Q120,88 98,138 Q76,188 76,249 L76,715 L219,715 L219,250 Q219,207 243,178 Q267,149 301,142 Q335,135 369,142 Q403,149 427,178 Q451,207 451,250 L451,715 L593,715 M208,910 L367,910 L280,773 L162,773 M414,910 L573,910 L486,773 L368,773"/> 
            <glyph glyph-name="ű" unicode="&#x171;" horiz-adv-x="593" d=" M593,249 Q593,188 571,138 Q549,88 512.5,57.5 Q476,27 429.5,10.5 Q383,-6 334.5,-6 Q286,-6 239.5,10.5 Q193,27 156.5,57.5 Q120,88 98,138 Q76,188 76,249 L76,715 L219,715 L219,250 Q219,207 243,178 Q267,149 301,142 Q335,135 369,142 Q403,149 427,178 Q451,207 451,250 L451,715 L593,715 M208,910 L367,910 L280,773 L162,773 M414,910 L573,910 L486,773 L368,773"/> 
            <glyph glyph-name="Ų" unicode="&#x172;" horiz-adv-x="593" d=" M593,249 Q593,131 515,61 L518,62 Q468,19 448.5,-36 Q429,-91 446,-123 Q453,-137 477.5,-139 Q502,-141 518,-132 L527,-229 Q477,-251 416,-243.5 Q355,-236 331,-190 Q309,-139 320.5,-92 Q332,-45 368,-4 Q296,-12 230.5,12.5 Q165,37 120.5,99 Q76,161 76,249 L76,715 L219,715 L219,250 Q219,207 243,178 Q267,149 301,142 Q335,135 369,142 Q403,149 427,178 Q451,207 451,250 L451,715 L593,715"/> 
            <glyph glyph-name="ų" unicode="&#x173;" horiz-adv-x="593" d=" M593,249 Q593,131 515,61 L518,62 Q468,19 448.5,-36 Q429,-91 446,-123 Q453,-137 477.5,-139 Q502,-141 518,-132 L527,-229 Q477,-251 416,-243.5 Q355,-236 331,-190 Q309,-139 320.5,-92 Q332,-45 368,-4 Q296,-12 230.5,12.5 Q165,37 120.5,99 Q76,161 76,249 L76,715 L219,715 L219,250 Q219,207 243,178 Q267,149 301,142 Q335,135 369,142 Q403,149 427,178 Q451,207 451,250 L451,715 L593,715"/> 
            <glyph glyph-name="Ŵ" unicode="&#x174;" horiz-adv-x="903" d=" M299,-15 L324,-15 L454,305 L585,-12 L611,-12 L903,715 L742,715 L598,350 L458,708 L451,708 L311,350 L167,715 L6,715 M665,767 L495,767 L454,816 L414,767 L244,767 L402,915 L505,915"/> 
            <glyph glyph-name="ŵ" unicode="&#x175;" horiz-adv-x="903" d=" M299,-15 L324,-15 L454,305 L585,-12 L611,-12 L903,715 L742,715 L598,350 L458,708 L451,708 L311,350 L167,715 L6,715 M665,767 L495,767 L454,816 L414,767 L244,767 L402,915 L505,915"/> 
            <glyph glyph-name="Ŷ" unicode="&#x176;" horiz-adv-x="647" d=" M255,0 L397,0 L397,322 L647,715 L472,715 L326,469 L180,715 L6,715 L255,322 M527,776 L363,776 L323,825 L284,776 L120,776 L273,924 L373,924"/> 
            <glyph glyph-name="ŷ" unicode="&#x177;" horiz-adv-x="647" d=" M255,0 L397,0 L397,322 L647,715 L472,715 L326,469 L180,715 L6,715 L255,322 M527,776 L363,776 L323,825 L284,776 L120,776 L273,924 L373,924"/> 
            <glyph glyph-name="Ÿ" unicode="&#x178;" horiz-adv-x="647" d=" M255,0 L255,322 L6,715 L180,715 L326,469 L472,715 L647,715 L397,322 L397,0 M119,843 Q119,878 143,901.5 Q167,925 200,925 Q235,925 258.5,901.5 Q282,878 282,843 Q282,809 258.5,785.5 Q235,762 200,762 Q166,763 142.5,786 Q119,809 119,843 M366,843 Q366,878 390,901.5 Q414,925 447,925 Q482,925 505.5,901.5 Q529,878 529,843 Q529,809 505.5,786 Q482,763 447,762 Q414,762 390,785.5 Q366,809 366,843"/> 
            <glyph glyph-name="Ź" unicode="&#x179;" horiz-adv-x="501" d=" M501,0 L22,0 Q51,64 103.5,181.5 Q156,299 199,395 Q242,491 280,576 L60,576 L60,715 L493,715 Q407,524 235,144 L501,144 M257,916 L423,916 L331,769 L209,769"/> 
            <glyph glyph-name="ź" unicode="&#x17A;" horiz-adv-x="501" d=" M501,0 L22,0 Q51,64 103.5,181.5 Q156,299 199,395 Q242,491 280,576 L60,576 L60,715 L493,715 Q407,524 235,144 L501,144 M257,916 L423,916 L331,769 L209,769"/> 
            <glyph glyph-name="Ż" unicode="&#x17B;" horiz-adv-x="501" d=" M501,0 L22,0 Q51,64 103.5,181.5 Q156,299 199,395 Q242,491 280,576 L60,576 L60,715 L493,715 Q407,524 235,144 L501,144 M282,928 Q323,928 346,904 Q369,880 368.5,851 Q368,822 345,798 Q322,774 282,774 Q242,774 219,798 Q196,822 196,851 Q196,880 219,904 Q242,928 282,928"/> 
            <glyph glyph-name="ż" unicode="&#x17C;" horiz-adv-x="501" d=" M501,0 L22,0 Q51,64 103.5,181.5 Q156,299 199,395 Q242,491 280,576 L60,576 L60,715 L493,715 Q407,524 235,144 L501,144 M282,928 Q323,928 346,904 Q369,880 368.5,851 Q368,822 345,798 Q322,774 282,774 Q242,774 219,798 Q196,822 196,851 Q196,880 219,904 Q242,928 282,928"/> 
            <glyph glyph-name="Ž" unicode="&#x17D;" horiz-adv-x="501" d=" M501,0 L22,0 Q51,64 103.5,181.5 Q156,299 199,395 Q242,491 280,576 L60,576 L60,715 L493,715 Q407,524 235,144 L501,144 M323,892 L478,892 L332,764 L238,764 L95,892 L248,892 L285,849"/> 
            <glyph glyph-name="ž" unicode="&#x17E;" horiz-adv-x="501" d=" M501,0 L22,0 Q51,64 103.5,181.5 Q156,299 199,395 Q242,491 280,576 L60,576 L60,715 L493,715 Q407,524 235,144 L501,144 M323,892 L478,892 L332,764 L238,764 L95,892 L248,892 L285,849"/> 
            <glyph glyph-name="ſ" unicode="&#x17F;" horiz-adv-x="437" d=" M437,572 L223,572 L223,0 L80,0 L80,715 L437,715"/> 
            <glyph glyph-name="ˆ" unicode="&#x2C6;" horiz-adv-x="405" d=" M405,587 L253,587 L216,634 L180,587 L29,587 L170,727 L262,727"/> 
            <glyph glyph-name="ˇ" unicode="&#x2C7;" horiz-adv-x="405" d=" M253,717 L405,717 L262,577 L170,577 L29,717 L180,717 L216,670"/> 
            <glyph glyph-name="˘" unicode="&#x2D8;" horiz-adv-x="328" d=" M139,680 Q231,680 231,722 L325,722 Q328,679 314.5,649 Q301,619 277,605 Q253,591 230.5,585.5 Q208,580 185,580 Q168,580 150.5,583 Q133,586 112,595.5 Q91,605 76,619.5 Q61,634 51.5,661 Q42,688 45,722 L139,722"/> 
            <glyph glyph-name="˙" unicode="&#x2D9;" horiz-adv-x="203" d=" M110,724 Q162,724 182.5,684 Q203,644 182,603.5 Q161,563 110,563 Q72,563 50,588 Q28,613 28,643.5 Q28,674 50,699 Q72,724 110,724"/> 
            <glyph glyph-name="˚" unicode="&#x2DA;" horiz-adv-x="325" d=" M182,637 Q149,637 135.5,611 Q122,585 135.5,559 Q149,533 182,533 Q215,533 229,559 Q243,585 229.5,611 Q216,637 182,637 M181,724 Q220,724 250,709 Q280,694 295.5,669.5 Q311,645 318,615.5 Q325,586 317.5,556.5 Q310,527 294.5,502.5 Q279,478 249,463 Q219,448 181,448 Q115,448 78,491 Q41,534 41,586 Q41,638 78,681 Q115,724 181,724"/> 
            <glyph glyph-name="˛" unicode="&#x2DB;" horiz-adv-x="239" d=" M124,13 L223,13 Q138,-92 160,-135 Q170,-149 190.5,-148 Q211,-147 230,-137 L239,-234 Q189,-256 128,-248.5 Q67,-241 43,-195 Q17,-146 45,-89 Q73,-32 124,13"/> 
            <glyph glyph-name="˜" unicode="&#x2DC;" horiz-adv-x="390" d=" M135,586 L48,624 Q63,674 92,702 Q121,730 162,729 Q182,728 206,717.5 Q230,707 244.5,698 Q259,689 275.5,693 Q292,697 304,721 L390,682 Q376,632 346,604.5 Q316,577 275,578 Q255,579 231.5,589.5 Q208,600 193,609 Q178,618 162,614 Q146,610 135,586"/> 
            <glyph glyph-name="˝" unicode="&#x2DD;" horiz-adv-x="484" d=" M96,719 L265,719 L172,581 L47,581 M315,719 L484,719 L391,581 L266,581"/> 
            <glyph glyph-name="–" unicode="&#x2013;" horiz-adv-x="490" d=" M38,275 L38,408 L490,408 L490,275"/> 
            <glyph glyph-name="—" unicode="&#x2014;" horiz-adv-x="579" d=" M38,275 L38,408 L579,408 L579,275"/> 
            <glyph glyph-name="‘" unicode="&#x2018;" horiz-adv-x="200" d=" M159,502 L15,502 L91,715 L200,715"/> 
            <glyph glyph-name="’" unicode="&#x2019;" horiz-adv-x="200" d=" M56,716 L200,716 L124,503 L15,503"/> 
            <glyph glyph-name="‚" unicode="&#x201A;" horiz-adv-x="205" d=" M57,110 L205,110 L127,-116 L15,-116"/> 
            <glyph glyph-name="“" unicode="&#x201C;" horiz-adv-x="378" d=" M153,502 L15,502 L91,715 L200,715 M337,502 L202,502 L269,715 L378,715"/> 
            <glyph glyph-name="”" unicode="&#x201D;" horiz-adv-x="374" d=" M236,714 L374,714 L298,501 L189,501 M52,714 L187,714 L120,501 L11,501"/> 
            <glyph glyph-name="„" unicode="&#x201E;" horiz-adv-x="427" d=" M57,110 L205,110 L127,-116 L15,-116 M279,110 L427,110 L349,-116 L237,-116"/> 
            <glyph glyph-name="•" unicode="&#x2022;" horiz-adv-x="269" d=" M142,467 Q190,467 222.5,441.5 Q255,416 262,380 Q269,344 261,308 Q253,272 221,246.5 Q189,221 142,221 Q95,221 63,246.5 Q31,272 24,308 Q17,344 24,380 Q31,416 63,441.5 Q95,467 142,467"/> 
            <glyph glyph-name="…" unicode="&#x2026;" horiz-adv-x="691" d=" M110,154 Q162,154 182.5,114 Q203,74 182,33.5 Q161,-7 110,-7 Q72,-7 50,18 Q28,43 28,73.5 Q28,104 50,129 Q72,154 110,154 M354,154 Q406,154 426.5,114 Q447,74 426,33.5 Q405,-7 354,-7 Q316,-7 294,18 Q272,43 272,73.5 Q272,104 294,129 Q316,154 354,154 M598,154 Q650,154 670.5,114 Q691,74 670,33.5 Q649,-7 598,-7 Q560,-7 538,18 Q516,43 516,73.5 Q516,104 538,129 Q560,154 598,154"/> 
            <glyph glyph-name="€" unicode="&#x20AC;" horiz-adv-x="483" d=" M-5,241 L-5,332 L57,332 Q56,347 56,378 L-5,378 L-5,469 L67,469 Q98,581 187.5,652.5 Q277,724 415,724 Q446,724 470,720 L462,576 Q434,580 415,580 Q283,580 228,469 L361,469 L361,378 L205,378 Q204,357 207,332 L361,332 L361,241 L237,241 Q295,144 418,144 Q446,144 474,149 L483,3 Q446,-2 418,-2 Q284,-2 195,66 Q106,134 72,241"/> 
            <glyph glyph-name=" " unicode="&#x20;" horiz-adv-x="366" d=" M36,494 L36,714 L166,714 L151,494 M236,494 L236,714 L366,714 L351,494"/> 
            <glyph glyph-name="!" unicode="&#x21;" horiz-adv-x="489" d=" M47,46 L65,196 Q119,158 175,147 Q231,136 269,139 Q301,141 323.5,162 Q346,183 343,211 Q341,239 322,255.5 Q303,272 269,284 Q170,320 113.5,370 Q57,420 57,502 Q57,577 97.5,634 Q138,691 206,711 L206,807 L333,807 L333,717 Q379,710 437,690 L419,552 Q338,585 273,582 Q237,580 218.5,557 Q200,534 202,502 Q205,475 225.5,458.5 Q246,442 282,430 Q489,354 489,211 Q489,135 447.5,79 Q406,23 333,3 L333,-94 L206,-94 L206,-3 Q122,7 47,46"/> 
            <glyph glyph-name="&quot;" unicode="&#x22;" horiz-adv-x="166" d=" M36,494 L36,714 L166,714 L151,494"/> 
            <glyph glyph-name="$" unicode="&#x24;" horiz-adv-x="205" d=" M57,110 L205,110 L127,-116 L15,-116"/> 
            <glyph glyph-name="'" unicode="&#x27;" horiz-adv-x="402" d=" M38,275 L38,408 L402,408 L402,275"/> 
            </font>
</defs>
</svg>
